<?xml version="1.0" encoding="UTF-8"?>
<svg width="509px" height="205px" viewBox="0 0 509 205" version="1.1" xmlns="http://www.w3.org/2000/svg" xmlns:xlink="http://www.w3.org/1999/xlink">
    <title>Fill 42</title>
    <g id="Page-1" stroke="none" stroke-width="1" fill="none" fill-rule="evenodd">
        <path d="M508.927249,98.8470178 C508.782249,96.7970178 507.402249,94.8510178 504.859249,95.1130178 C501.002249,95.5100178 497.146249,95.9520178 493.291249,96.4180178 C491.640249,96.5040178 489.987249,96.5900178 488.335249,96.6770178 C477.116249,97.2650178 441.391249,98.0720178 430.170249,98.6600178 C423.067249,98.9290178 413.874249,99.1760178 406.772249,99.4450178 C415.336249,66.6340178 420.890249,60.3670178 417.134249,59.4050178 C415.266249,58.9260178 413.120249,58.4440178 411.403249,63.8140178 C409.478249,69.8350178 402.017249,93.9430178 400.855249,99.8520178 C397.086249,99.9950178 379.728249,101.287018 375.853249,101.238018 C373.307249,101.206018 371.980249,102.047018 372.010249,104.097018 C372.007249,104.130018 372.004249,104.161018 372.007249,104.193018 C372.077249,106.312018 373.080249,106.590018 375.704249,106.316018 C379.560249,105.913018 383.500249,105.891018 387.355249,105.420018 C390.622249,105.244018 396.185249,104.849018 399.453249,104.673018 C397.362249,109.702018 384.965249,131.758018 355.197249,133.264018 L354.457249,133.273018 C353.474249,133.302018 352.483249,133.273018 351.542249,133.007018 C350.602249,132.749018 349.740249,132.197018 349.154249,131.415018 C348.554249,130.639018 348.236249,129.691018 348.018249,128.752018 C347.795249,127.759018 347.713249,127.021018 347.531249,125.541018 L347.400249,124.446018 L347.206249,123.009018 C347.070249,122.054018 346.905249,121.101018 346.679249,120.173018 C346.247249,118.307018 345.574249,116.532018 344.558249,114.968018 C343.558249,113.399018 342.119249,112.104018 340.437249,111.280018 C338.754249,110.462018 336.894249,110.022018 335.009249,109.943018 C333.116249,109.743018 331.254249,110.228018 329.482249,110.918018 C327.705249,111.642018 326.001249,112.636018 324.352249,113.716018 L323.321249,114.411018 L322.388249,115.063018 L320.571249,116.374018 C318.188249,118.125018 315.918249,119.876018 313.650249,121.499018 C312.518249,122.315018 311.390249,123.081018 310.265249,123.801018 L309.548249,124.248018 L308.977249,124.577018 C308.594249,124.787018 308.212249,125.000018 307.817249,125.181018 C306.277249,125.909018 304.512249,126.522018 302.846249,125.968018 C302.428249,125.865018 302.056249,125.608018 301.805249,125.254018 C301.533249,124.919018 301.336249,124.530018 301.155249,124.140018 C300.806249,123.354018 300.549249,122.535018 300.318249,121.719018 L299.997249,120.494018 L299.573249,118.764018 L298.592249,114.585018 C297.929249,111.754018 297.249249,108.863018 296.325249,105.870018 L295.885249,104.528018 L295.343249,103.071018 C294.958249,102.113018 294.556249,101.154018 294.065249,100.260018 C293.115249,98.4520178 291.929249,96.8010178 290.369249,95.5500178 C289.567249,94.9640178 288.685249,94.4260178 287.717249,94.1840178 C286.755249,93.9520178 285.785249,93.7590178 284.765249,93.7340178 C282.737249,93.6510178 280.671249,93.8370178 278.628249,94.3010178 C277.616249,94.5520178 276.594249,94.8020178 275.565249,95.1810178 C274.758249,95.4700178 273.952249,95.7660178 273.194249,96.1100178 C271.649249,96.7690178 270.200249,97.5250178 268.808249,98.3250178 C266.015249,99.9220178 263.478249,101.720018 261.049249,103.578018 C256.215249,107.309018 251.860249,111.336018 247.609249,115.268018 L244.448249,118.188018 L243.002249,119.502018 L242.118249,120.274018 C241.049249,121.178018 239.988249,122.054018 238.836249,122.754018 C238.258249,123.095018 237.653249,123.403018 236.996249,123.528018 C236.344249,123.675018 235.607249,123.454018 235.192249,122.889018 C234.397249,121.740018 234.314249,120.291018 234.218249,118.977018 C234.192249,118.307018 234.184249,117.644018 234.204249,116.988018 L234.297249,114.571018 C234.407249,111.754018 234.558249,108.912018 234.731249,106.060018 C235.434249,94.6440178 240.147249,51.0640178 241.230249,41.3760178 C241.768249,36.5290178 242.245249,31.6550178 242.595249,26.6990178 C242.931249,21.7250178 243.185249,16.7430178 242.998249,11.2860178 C242.835249,7.20201778 241.648249,3.62701778 237.540249,0.864017783 C236.884249,0.422017783 233.685249,-1.14498222 229.211249,1.50001778 C229.058249,1.59001778 228.914249,1.68801778 228.766249,1.78401778 C228.290249,2.09001778 227.804249,2.42701778 227.302249,2.83501778 C227.257249,2.87501778 227.199249,2.92701778 227.150249,2.97001778 C226.595249,3.41901778 226.058249,3.88101778 225.541249,4.35901778 C225.035249,4.83201778 224.567249,5.33101778 224.085249,5.82101778 C223.684249,6.21201778 223.322249,6.57201778 223.055249,6.85301778 C223.055249,6.85401778 223.055249,6.85501778 223.056249,6.85501778 C222.219249,7.74701778 221.410249,8.65601778 220.617249,9.57501778 C217.184249,14.1730178 214.106249,18.9300178 211.066249,23.7040178 C208.040249,28.4830178 205.095249,33.2990178 202.169249,38.1190178 C196.321249,47.7610178 190.538249,57.4180178 184.643249,66.9970178 C172.856249,86.1460178 160.671249,105.038018 147.280249,122.979018 C140.584249,131.942018 133.589249,140.665018 126.152249,148.950018 C118.711249,157.222018 110.836249,165.082018 102.329249,172.077018 C93.8292492,179.049018 84.6612492,185.187018 74.7922492,189.442018 C64.9602492,193.717018 54.3602492,195.915018 43.9682492,194.985018 C37.9662492,193.979018 32.2422492,191.996018 26.9052492,189.268018 C21.5702492,186.523018 16.5972492,183.095018 11.9512492,179.202018 C8.61724921,176.384018 4.47424921,177.811018 1.94624921,180.747018 C0.704249213,182.214018 -0.0717507872,184.065018 0.00524921275,185.949018 C0.0692492128,187.837018 1.03424921,189.733018 3.18224921,191.151018 C9.08424921,195.019018 15.5042492,198.253018 22.2802492,200.526018 C29.0572492,202.788018 36.2082492,204.003018 43.2782492,203.990018 C49.3232492,204.386018 55.4132492,203.959018 61.2822492,202.719018 C67.1552492,201.495018 72.8262492,199.572018 78.1912492,197.122018 C88.9502492,192.234018 98.5502492,185.489018 107.314249,178.027018 C116.078249,170.537018 124.037249,162.274018 131.499249,153.658018 C138.955249,145.029018 145.900249,136.021018 152.517249,126.810018 C165.743249,108.374018 177.650249,89.1240178 189.123249,69.6930178 C194.860249,59.9760178 200.473249,50.2000178 206.133249,40.4740178 C208.965249,35.6130178 211.810249,30.7660178 214.724249,25.9760178 C217.647249,21.1960178 220.612249,16.4360178 223.842249,11.9480178 C227.135249,7.28601778 233.507249,7.58501778 232.842249,14.7480178 C232.028249,23.5040178 224.933249,93.8260178 224.536249,105.476018 C224.439249,108.391018 224.365249,111.318018 224.330249,114.273018 L224.314249,117.162018 C224.305249,118.283018 224.341249,119.390018 224.391249,120.491018 C224.463249,122.705018 224.719249,124.836018 225.079249,126.868018 C225.934249,130.879018 227.249249,134.264018 230.048249,136.583018 C232.459249,138.579018 235.947249,138.081018 238.042249,137.174018 C241.432249,135.707018 244.936249,133.083018 248.163249,130.180018 L249.370249,129.078018 L250.478249,128.039018 L252.193249,126.396018 L255.310249,123.352018 C259.421249,119.328018 263.460249,115.403018 267.678249,111.960018 C269.786249,110.252018 271.933249,108.651018 274.120249,107.321018 C275.211249,106.653018 276.311249,106.042018 277.408249,105.539018 C277.956249,105.269018 278.504249,105.057018 279.048249,104.841018 C279.372249,104.715018 279.740249,104.583018 280.120249,104.474018 C280.874249,104.259018 281.655249,104.113018 282.449249,104.073018 C282.846249,104.050018 283.246249,104.058018 283.643249,104.098018 C284.047249,104.137018 284.397249,104.355018 284.713249,104.589018 C285.315249,105.111018 285.736249,105.805018 286.098249,106.514018 C286.282249,106.870018 286.440249,107.240018 286.595249,107.612018 L286.817249,108.176018 L287.072249,108.886018 C287.922249,111.387018 288.649249,114.101018 289.376249,116.870018 L290.491249,121.093018 L291.178249,123.549018 C291.453249,124.535018 291.772249,125.498018 292.090249,126.461018 C292.758249,128.366018 293.549249,130.190018 294.587249,131.754018 C295.591249,133.326018 296.960249,134.685018 298.817249,135.287018 C302.482249,136.516018 306.419249,135.637018 309.987249,133.945018 C310.892249,133.547018 311.765249,133.041018 312.634249,132.549018 L313.920249,131.770018 L315.022249,131.044018 C316.304249,130.173018 317.539249,129.280018 318.725249,128.376018 C321.104249,126.573018 323.356249,124.735018 325.580249,123.008018 L327.240249,121.740018 L328.813249,120.593018 C329.558249,120.066018 330.328249,119.559018 331.151249,119.135018 C332.764249,118.182018 334.816249,118.192018 336.537249,118.902018 C337.398249,119.274018 338.124249,119.932018 338.591249,120.746018 C339.073249,121.553018 339.356249,122.462018 339.567249,123.381018 C339.674249,123.841018 339.758249,124.309018 339.836249,124.779018 L340.103249,126.535018 C340.306249,127.912018 340.622249,130.048018 341.165249,131.819018 C341.706249,133.634018 342.501249,135.369018 343.742249,136.770018 C344.953249,138.196018 346.606249,139.209018 348.385249,139.745018 C350.169249,140.292018 352.062249,140.411018 353.960249,140.298018 L355.378249,140.261018 C355.872249,140.255018 356.186249,140.193018 356.599249,140.161018 L358.931249,139.921018 C381.081249,136.936018 395.072249,120.483018 396.542249,118.251018 C396.635249,121.439018 397.069249,124.690018 398.183249,127.890018 C398.700249,129.362018 399.392249,130.804018 400.239249,132.159018 C401.300249,134.120018 402.704249,135.970018 404.462249,137.418018 C405.029249,138.007018 405.713249,138.377018 406.348249,138.861018 L407.328249,139.541018 C407.660249,139.752018 408.006249,139.910018 408.347249,140.096018 C409.032249,140.450018 409.724249,140.816018 410.424249,141.148018 L412.543249,141.935018 C418.259249,143.893018 423.968249,144.199018 429.422249,144.017018 C433.432249,143.822018 434.906249,140.556018 434.429249,137.637018 C433.948249,134.678018 431.766249,132.011018 428.423249,132.575018 C423.799249,133.299018 419.162249,133.598018 415.059249,132.844018 C410.939249,132.116018 407.505249,130.331018 405.450249,126.766018 C404.739249,125.461018 404.242249,123.979018 403.899249,122.401018 C403.113249,115.502018 404.199249,107.940018 405.179249,104.723018 C411.212249,104.399018 461.853249,103.661018 485.339249,103.149018 L485.339249,103.183018 C487.641249,103.120018 489.701249,103.061018 491.468249,103.004018 C491.484249,103.003018 491.501249,103.003018 491.516249,103.003018 L491.516249,103.002018 C492.255249,102.978018 492.957249,102.955018 493.580249,102.932018 C497.460249,103.054018 501.337249,103.151018 505.212249,103.206018 C507.844249,103.242018 509.051249,101.047018 508.937249,98.9310178 C508.936249,98.9020178 508.931249,98.8750178 508.927249,98.8470178" id="Fill-42" fill="#A99763"></path>
    </g>
</svg>