<?xml version="1.0" encoding="UTF-8"?>
<svg width="654px" height="272px" viewBox="0 0 654 272" version="1.1" xmlns="http://www.w3.org/2000/svg" xmlns:xlink="http://www.w3.org/1999/xlink">
    <title>logo-darker copy 2</title>
    <g id="logo-darker-copy-2" stroke="none" stroke-width="1" fill="none" fill-rule="evenodd">
        <g id="Logo" transform="translate(-0.000249, 0.274982)" fill="#A99763">
            <path d="M508.927249,98.8470178 C508.782249,96.7970178 507.402249,94.8510178 504.859249,95.1130178 C501.002249,95.5100178 497.146249,95.9520178 493.291249,96.4180178 C491.640249,96.5040178 489.987249,96.5900178 488.335249,96.6770178 C477.116249,97.2650178 441.391249,98.0720178 430.170249,98.6600178 C423.067249,98.9290178 413.874249,99.1760178 406.772249,99.4450178 C415.336249,66.6340178 420.890249,60.3670178 417.134249,59.4050178 C415.266249,58.9260178 413.120249,58.4440178 411.403249,63.8140178 C409.478249,69.8350178 402.017249,93.9430178 400.855249,99.8520178 C397.086249,99.9950178 379.728249,101.287018 375.853249,101.238018 C373.307249,101.206018 371.980249,102.047018 372.010249,104.097018 C372.007249,104.130018 372.004249,104.161018 372.007249,104.193018 C372.077249,106.312018 373.080249,106.590018 375.704249,106.316018 C379.560249,105.913018 383.500249,105.891018 387.355249,105.420018 C390.622249,105.244018 396.185249,104.849018 399.453249,104.673018 C397.362249,109.702018 384.965249,131.758018 355.197249,133.264018 L354.457249,133.273018 C353.474249,133.302018 352.483249,133.273018 351.542249,133.007018 C350.602249,132.749018 349.740249,132.197018 349.154249,131.415018 C348.554249,130.639018 348.236249,129.691018 348.018249,128.752018 C347.795249,127.759018 347.713249,127.021018 347.531249,125.541018 L347.400249,124.446018 L347.206249,123.009018 C347.070249,122.054018 346.905249,121.101018 346.679249,120.173018 C346.247249,118.307018 345.574249,116.532018 344.558249,114.968018 C343.558249,113.399018 342.119249,112.104018 340.437249,111.280018 C338.754249,110.462018 336.894249,110.022018 335.009249,109.943018 C333.116249,109.743018 331.254249,110.228018 329.482249,110.918018 C327.705249,111.642018 326.001249,112.636018 324.352249,113.716018 L323.321249,114.411018 L322.388249,115.063018 L320.571249,116.374018 C318.188249,118.125018 315.918249,119.876018 313.650249,121.499018 C312.518249,122.315018 311.390249,123.081018 310.265249,123.801018 L309.548249,124.248018 L308.977249,124.577018 C308.594249,124.787018 308.212249,125.000018 307.817249,125.181018 C306.277249,125.909018 304.512249,126.522018 302.846249,125.968018 C302.428249,125.865018 302.056249,125.608018 301.805249,125.254018 C301.533249,124.919018 301.336249,124.530018 301.155249,124.140018 C300.806249,123.354018 300.549249,122.535018 300.318249,121.719018 L299.997249,120.494018 L299.573249,118.764018 L298.592249,114.585018 C297.929249,111.754018 297.249249,108.863018 296.325249,105.870018 L295.885249,104.528018 L295.343249,103.071018 C294.958249,102.113018 294.556249,101.154018 294.065249,100.260018 C293.115249,98.4520178 291.929249,96.8010178 290.369249,95.5500178 C289.567249,94.9640178 288.685249,94.4260178 287.717249,94.1840178 C286.755249,93.9520178 285.785249,93.7590178 284.765249,93.7340178 C282.737249,93.6510178 280.671249,93.8370178 278.628249,94.3010178 C277.616249,94.5520178 276.594249,94.8020178 275.565249,95.1810178 C274.758249,95.4700178 273.952249,95.7660178 273.194249,96.1100178 C271.649249,96.7690178 270.200249,97.5250178 268.808249,98.3250178 C266.015249,99.9220178 263.478249,101.720018 261.049249,103.578018 C256.215249,107.309018 251.860249,111.336018 247.609249,115.268018 L244.448249,118.188018 L243.002249,119.502018 L242.118249,120.274018 C241.049249,121.178018 239.988249,122.054018 238.836249,122.754018 C238.258249,123.095018 237.653249,123.403018 236.996249,123.528018 C236.344249,123.675018 235.607249,123.454018 235.192249,122.889018 C234.397249,121.740018 234.314249,120.291018 234.218249,118.977018 C234.192249,118.307018 234.184249,117.644018 234.204249,116.988018 L234.297249,114.571018 C234.407249,111.754018 234.558249,108.912018 234.731249,106.060018 C235.434249,94.6440178 240.147249,51.0640178 241.230249,41.3760178 C241.768249,36.5290178 242.245249,31.6550178 242.595249,26.6990178 C242.931249,21.7250178 243.185249,16.7430178 242.998249,11.2860178 C242.835249,7.20201778 241.648249,3.62701778 237.540249,0.864017783 C236.884249,0.422017783 233.685249,-1.14498222 229.211249,1.50001778 C229.058249,1.59001778 228.914249,1.68801778 228.766249,1.78401778 C228.290249,2.09001778 227.804249,2.42701778 227.302249,2.83501778 C227.257249,2.87501778 227.199249,2.92701778 227.150249,2.97001778 C226.595249,3.41901778 226.058249,3.88101778 225.541249,4.35901778 C225.035249,4.83201778 224.567249,5.33101778 224.085249,5.82101778 C223.684249,6.21201778 223.322249,6.57201778 223.055249,6.85301778 C223.055249,6.85401778 223.055249,6.85501778 223.056249,6.85501778 C222.219249,7.74701778 221.410249,8.65601778 220.617249,9.57501778 C217.184249,14.1730178 214.106249,18.9300178 211.066249,23.7040178 C208.040249,28.4830178 205.095249,33.2990178 202.169249,38.1190178 C196.321249,47.7610178 190.538249,57.4180178 184.643249,66.9970178 C172.856249,86.1460178 160.671249,105.038018 147.280249,122.979018 C140.584249,131.942018 133.589249,140.665018 126.152249,148.950018 C118.711249,157.222018 110.836249,165.082018 102.329249,172.077018 C93.8292492,179.049018 84.6612492,185.187018 74.7922492,189.442018 C64.9602492,193.717018 54.3602492,195.915018 43.9682492,194.985018 C37.9662492,193.979018 32.2422492,191.996018 26.9052492,189.268018 C21.5702492,186.523018 16.5972492,183.095018 11.9512492,179.202018 C8.61724921,176.384018 4.47424921,177.811018 1.94624921,180.747018 C0.704249213,182.214018 -0.0717507872,184.065018 0.00524921275,185.949018 C0.0692492128,187.837018 1.03424921,189.733018 3.18224921,191.151018 C9.08424921,195.019018 15.5042492,198.253018 22.2802492,200.526018 C29.0572492,202.788018 36.2082492,204.003018 43.2782492,203.990018 C49.3232492,204.386018 55.4132492,203.959018 61.2822492,202.719018 C67.1552492,201.495018 72.8262492,199.572018 78.1912492,197.122018 C88.9502492,192.234018 98.5502492,185.489018 107.314249,178.027018 C116.078249,170.537018 124.037249,162.274018 131.499249,153.658018 C138.955249,145.029018 145.900249,136.021018 152.517249,126.810018 C165.743249,108.374018 177.650249,89.1240178 189.123249,69.6930178 C194.860249,59.9760178 200.473249,50.2000178 206.133249,40.4740178 C208.965249,35.6130178 211.810249,30.7660178 214.724249,25.9760178 C217.647249,21.1960178 220.612249,16.4360178 223.842249,11.9480178 C227.135249,7.28601778 233.507249,7.58501778 232.842249,14.7480178 C232.028249,23.5040178 224.933249,93.8260178 224.536249,105.476018 C224.439249,108.391018 224.365249,111.318018 224.330249,114.273018 L224.314249,117.162018 C224.305249,118.283018 224.341249,119.390018 224.391249,120.491018 C224.463249,122.705018 224.719249,124.836018 225.079249,126.868018 C225.934249,130.879018 227.249249,134.264018 230.048249,136.583018 C232.459249,138.579018 235.947249,138.081018 238.042249,137.174018 C241.432249,135.707018 244.936249,133.083018 248.163249,130.180018 L249.370249,129.078018 L250.478249,128.039018 L252.193249,126.396018 L255.310249,123.352018 C259.421249,119.328018 263.460249,115.403018 267.678249,111.960018 C269.786249,110.252018 271.933249,108.651018 274.120249,107.321018 C275.211249,106.653018 276.311249,106.042018 277.408249,105.539018 C277.956249,105.269018 278.504249,105.057018 279.048249,104.841018 C279.372249,104.715018 279.740249,104.583018 280.120249,104.474018 C280.874249,104.259018 281.655249,104.113018 282.449249,104.073018 C282.846249,104.050018 283.246249,104.058018 283.643249,104.098018 C284.047249,104.137018 284.397249,104.355018 284.713249,104.589018 C285.315249,105.111018 285.736249,105.805018 286.098249,106.514018 C286.282249,106.870018 286.440249,107.240018 286.595249,107.612018 L286.817249,108.176018 L287.072249,108.886018 C287.922249,111.387018 288.649249,114.101018 289.376249,116.870018 L290.491249,121.093018 L291.178249,123.549018 C291.453249,124.535018 291.772249,125.498018 292.090249,126.461018 C292.758249,128.366018 293.549249,130.190018 294.587249,131.754018 C295.591249,133.326018 296.960249,134.685018 298.817249,135.287018 C302.482249,136.516018 306.419249,135.637018 309.987249,133.945018 C310.892249,133.547018 311.765249,133.041018 312.634249,132.549018 L313.920249,131.770018 L315.022249,131.044018 C316.304249,130.173018 317.539249,129.280018 318.725249,128.376018 C321.104249,126.573018 323.356249,124.735018 325.580249,123.008018 L327.240249,121.740018 L328.813249,120.593018 C329.558249,120.066018 330.328249,119.559018 331.151249,119.135018 C332.764249,118.182018 334.816249,118.192018 336.537249,118.902018 C337.398249,119.274018 338.124249,119.932018 338.591249,120.746018 C339.073249,121.553018 339.356249,122.462018 339.567249,123.381018 C339.674249,123.841018 339.758249,124.309018 339.836249,124.779018 L340.103249,126.535018 C340.306249,127.912018 340.622249,130.048018 341.165249,131.819018 C341.706249,133.634018 342.501249,135.369018 343.742249,136.770018 C344.953249,138.196018 346.606249,139.209018 348.385249,139.745018 C350.169249,140.292018 352.062249,140.411018 353.960249,140.298018 L355.378249,140.261018 C355.872249,140.255018 356.186249,140.193018 356.599249,140.161018 L358.931249,139.921018 C381.081249,136.936018 395.072249,120.483018 396.542249,118.251018 C396.635249,121.439018 397.069249,124.690018 398.183249,127.890018 C398.700249,129.362018 399.392249,130.804018 400.239249,132.159018 C401.300249,134.120018 402.704249,135.970018 404.462249,137.418018 C405.029249,138.007018 405.713249,138.377018 406.348249,138.861018 L407.328249,139.541018 C407.660249,139.752018 408.006249,139.910018 408.347249,140.096018 C409.032249,140.450018 409.724249,140.816018 410.424249,141.148018 L412.543249,141.935018 C418.259249,143.893018 423.968249,144.199018 429.422249,144.017018 C433.432249,143.822018 434.906249,140.556018 434.429249,137.637018 C433.948249,134.678018 431.766249,132.011018 428.423249,132.575018 C423.799249,133.299018 419.162249,133.598018 415.059249,132.844018 C410.939249,132.116018 407.505249,130.331018 405.450249,126.766018 C404.739249,125.461018 404.242249,123.979018 403.899249,122.401018 C403.113249,115.502018 404.199249,107.940018 405.179249,104.723018 C411.212249,104.399018 461.853249,103.661018 485.339249,103.149018 L485.339249,103.183018 C487.641249,103.120018 489.701249,103.061018 491.468249,103.004018 C491.484249,103.003018 491.501249,103.003018 491.516249,103.003018 L491.516249,103.002018 C492.255249,102.978018 492.957249,102.955018 493.580249,102.932018 C497.460249,103.054018 501.337249,103.151018 505.212249,103.206018 C507.844249,103.242018 509.051249,101.047018 508.937249,98.9310178 C508.936249,98.9020178 508.931249,98.8750178 508.927249,98.8470178" id="Fill-42"></path>
        </g>
        <path d="M164.883,223 L169.017,210.651 L184.493,210.651 L188.627,223 L192.549,223 L179.299,184.628 L174.423,184.628 L161.385,223 L164.883,223 Z M183.486,207.524 L170.077,207.524 L176.808,187.543 L183.486,207.524 Z M207.573456,223 L207.573456,188.444 L228.031456,223 L232.536456,223 L232.536456,184.628 L229.197456,184.628 L229.197456,218.707 L209.269456,184.628 L204.181456,184.628 L204.181456,223 L207.573456,223 Z M261.128912,223.636 C266.746912,223.636 271.622912,220.827 272.894912,217.594 L273.477912,223 L276.127912,223 L276.127912,203.125 L261.393912,203.125 L261.393912,206.252 L272.894912,206.252 L272.894912,210.227 C272.894912,215.103 269.237912,220.721 261.711912,220.721 C254.397912,220.721 248.302912,217.117 248.302912,203.92 C248.302912,193.161 253.602912,186.96 262.241912,186.96 C268.442912,186.96 272.152912,189.61 272.894912,196.818 L276.233912,196.447 C275.544912,187.49 270.297912,183.939 262.400912,183.939 C251.641912,183.939 244.698912,190.935 244.698912,204.238 C244.698912,215.686 249.574912,223.636 261.128912,223.636 Z M312.193368,223 L312.193368,219.926 L293.537368,219.926 L293.537368,205.086 L310.497368,205.086 L310.497368,201.959 L293.537368,201.959 L293.537368,187.702 L311.663368,187.702 L311.663368,184.628 L289.986368,184.628 L289.986368,223 L312.193368,223 Z M345.131824,223 L345.131824,219.926 L327.535824,219.926 L327.535824,184.628 L323.984824,184.628 L323.984824,223 L345.131824,223 Z M360.10328,223 L360.10328,184.628 L356.55228,184.628 L356.55228,223 L360.10328,223 Z M378.307736,223 L378.307736,188.444 L398.765736,223 L403.270736,223 L403.270736,184.628 L399.931736,184.628 L399.931736,218.707 L380.003736,184.628 L374.915736,184.628 L374.915736,223 L378.307736,223 Z M440.290192,223 L440.290192,219.926 L421.634192,219.926 L421.634192,205.086 L438.594192,205.086 L438.594192,201.959 L421.634192,201.959 L421.634192,187.702 L439.760192,187.702 L439.760192,184.628 L418.083192,184.628 L418.083192,223 L440.290192,223 Z M478.448104,223 L478.448104,187.702 L490.108104,187.702 L490.108104,184.628 L463.184104,184.628 L463.184104,187.702 L474.897104,187.702 L474.897104,223 L478.448104,223 Z M503.64856,223 L503.64856,206.464 L513.71856,206.464 L522.94056,223 L526.80956,223 L517.11056,205.563 C521.77456,204.132 524.84856,200.687 524.84856,194.91 C524.84856,189.822 522.09256,184.628 512.55256,184.628 L500.15056,184.628 L500.15056,223 L503.64856,223 Z M511.96956,203.39 L503.64856,203.39 L503.64856,187.702 L511.17456,187.702 C517.16356,187.702 521.13856,189.027 521.13856,194.963 C521.13856,201.482 517.53456,203.39 511.96956,203.39 Z M537.700016,223 L541.834016,210.651 L557.310016,210.651 L561.444016,223 L565.366016,223 L552.116016,184.628 L547.240016,184.628 L534.202016,223 L537.700016,223 Z M556.303016,207.524 L542.894016,207.524 L549.625016,187.543 L556.303016,207.524 Z M587.068472,223 L599.470472,184.628 L595.866472,184.628 L584.683472,219.873 L572.970472,184.628 L569.048472,184.628 L582.192472,223 L587.068472,223 Z M613.063928,223 L613.063928,184.628 L609.512928,184.628 L609.512928,223 L613.063928,223 Z M637.787384,223.636 C644.677384,223.636 650.878384,220.615 650.878384,212.771 C650.878384,206.183857 645.98198,204.133749 640.862396,202.567792 L640.332179,202.407357 C640.243741,202.38085 640.155285,202.354446 640.066833,202.328123 L639.536384,202.171 L639.536384,202.171 C634.501384,200.687 629.678384,199.256 629.678384,193.956 C629.678384,190.14 631.957384,187.119 638.582384,187.119 C645.048384,187.119 646.532384,191.306 647.274384,195.016 L650.666384,194.592 C649.765384,186.801 645.101384,183.939 638.423384,183.939 C631.162384,183.939 625.915384,187.914 625.915384,194.115 C625.915384,201.042508 630.762419,203.079313 635.819056,204.545761 L636.333832,204.693093 C636.677257,204.790229 637.020922,204.885415 637.363384,204.98 C642.345384,206.358 647.115384,207.736 647.115384,213.248 C647.115384,219.025 642.186384,220.562 637.787384,220.562 C630.844384,220.562 628.724384,216.746 627.717384,212.453 L624.166384,212.983 C625.279384,219.926 629.307384,223.636 637.787384,223.636 Z" id="ANGELINETRAVIS" fill="#575649" fill-rule="nonzero"></path>
        <path d="M167.256,272 L172.824,251.52 L178.232,272 L180.952,272 L185.816,248.832 L183.704,248.832 L179.576,269.76 L174.104,248.832 L171.64,248.832 L166.136,269.44 L161.912,248.832 L159.64,248.832 L164.76,272 L167.256,272 Z M194.068351,272 L194.068351,262.016 L200.148351,262.016 L205.716351,272 L208.052351,272 L202.196351,261.472 C205.012351,260.608 206.868351,258.528 206.868351,255.04 C206.868351,251.968 205.204351,248.832 199.444351,248.832 L191.956351,248.832 L191.956351,272 L194.068351,272 Z M199.092351,260.16 L194.068351,260.16 L194.068351,250.688 L198.612351,250.688 C202.228351,250.688 204.628351,251.488 204.628351,255.072 C204.628351,259.008 202.452351,260.16 199.092351,260.16 Z M216.496702,272 L216.496702,248.832 L214.352702,248.832 L214.352702,272 L216.496702,272 Z M231.693053,272 L231.693053,250.688 L238.733053,250.688 L238.733053,248.832 L222.477053,248.832 L222.477053,250.688 L229.549053,250.688 L229.549053,272 L231.693053,272 Z M246.857404,272 L246.857404,248.832 L244.713404,248.832 L244.713404,272 L246.857404,272 Z M257.765755,272 L257.765755,251.136 L270.117755,272 L272.837755,272 L272.837755,248.832 L270.821755,248.832 L270.821755,269.408 L258.789755,248.832 L255.717755,248.832 L255.717755,272 L257.765755,272 Z M290.018106,272.384 C293.410106,272.384 296.354106,270.688 297.122106,268.736 L297.474106,272 L299.074106,272 L299.074106,260 L290.178106,260 L290.178106,261.888 L297.122106,261.888 L297.122106,264.288 C297.122106,267.232 294.914106,270.624 290.370106,270.624 C285.954106,270.624 282.274106,268.448 282.274106,260.48 C282.274106,253.984 285.474106,250.24 290.690106,250.24 C294.434106,250.24 296.674106,251.84 297.122106,256.192 L299.138106,255.968 C298.722106,250.56 295.554106,248.416 290.786106,248.416 C284.290106,248.416 280.098106,252.64 280.098106,260.672 C280.098106,267.584 283.042106,272.384 290.018106,272.384 Z M317.050808,272 L319.546808,264.544 L328.890808,264.544 L331.386808,272 L333.754808,272 L325.754808,248.832 L322.810808,248.832 L314.938808,272 L317.050808,272 Z M328.282808,262.656 L320.186808,262.656 L324.250808,250.592 L328.282808,262.656 Z M342.743159,272 L342.743159,251.136 L355.095159,272 L357.815159,272 L357.815159,248.832 L355.799159,248.832 L355.799159,269.408 L343.767159,248.832 L340.695159,248.832 L340.695159,272 L342.743159,272 Z M372.85151,272 C381.13951,272 384.88351,267.168 384.88351,260.064 C384.88351,253.152 381.42751,248.832 373.39551,248.832 L366.67551,248.832 L366.67551,272 L372.85151,272 Z M373.01151,270.144 L368.81951,270.144 L368.81951,250.688 L373.20351,250.688 C379.05951,250.688 382.64351,252.896 382.64351,260.544 C382.64351,266.624 379.31551,270.144 373.01151,270.144 Z M403.756212,272 L403.756212,263.168 L407.660212,263.168 C413.068212,263.168 416.428212,261.12 416.428212,255.648 C416.428212,251.968 414.636212,248.832 408.716212,248.832 L401.644212,248.832 L401.644212,272 L403.756212,272 Z M407.807652,261.27909 L403.756212,261.28 L403.756212,250.688 L406.636212,250.688 C411.788212,250.688 414.188212,251.488 414.188212,255.712 C414.188212,260.388308 411.387135,261.247763 407.807652,261.27909 Z M425.576563,272 L425.576563,261.024 L437.800563,261.024 L437.800563,272 L439.944563,272 L439.944563,248.832 L437.800563,248.832 L437.800563,259.136 L425.576563,259.136 L425.576563,248.832 L423.432563,248.832 L423.432563,272 L425.576563,272 Z M457.444914,272.384 C464.324914,272.384 467.972914,267.456 467.972914,259.904 C467.972914,253.472 464.708914,248.416 457.892914,248.416 C451.012914,248.416 447.204914,253.472 447.204914,260.384 C447.204914,267.328 450.468914,272.384 457.444914,272.384 Z M457.572914,270.496 C452.772914,270.496 449.444914,266.944 449.444914,260.384 C449.444914,253.856 453.028914,250.304 457.828914,250.304 C462.564914,250.304 465.764914,253.824 465.764914,260.224 C465.764914,267.104 462.340914,270.496 457.572914,270.496 Z M480.289265,272 L480.289265,250.688 L487.329265,250.688 L487.329265,248.832 L471.073265,248.832 L471.073265,250.688 L478.145265,250.688 L478.145265,272 L480.289265,272 Z M500.669616,272.384 C507.549616,272.384 511.197616,267.456 511.197616,259.904 C511.197616,253.472 507.933616,248.416 501.117616,248.416 C494.237616,248.416 490.429616,253.472 490.429616,260.384 C490.429616,267.328 493.693616,272.384 500.669616,272.384 Z M500.797616,270.496 C495.997616,270.496 492.669616,266.944 492.669616,260.384 C492.669616,253.856 496.253616,250.304 501.053616,250.304 C505.789616,250.304 508.989616,253.824 508.989616,260.224 C508.989616,267.104 505.565616,270.496 500.797616,270.496 Z M526.777967,272.384 C530.169967,272.384 533.113967,270.688 533.881967,268.736 L534.233967,272 L535.833967,272 L535.833967,260 L526.937967,260 L526.937967,261.888 L533.881967,261.888 L533.881967,264.288 C533.881967,267.232 531.673967,270.624 527.129967,270.624 C522.713967,270.624 519.033967,268.448 519.033967,260.48 C519.033967,253.984 522.233967,250.24 527.449967,250.24 C531.193967,250.24 533.433967,251.84 533.881967,256.192 L535.897967,255.968 C535.481967,250.56 532.313967,248.416 527.545967,248.416 C521.049967,248.416 516.857967,252.64 516.857967,260.672 C516.857967,267.584 519.801967,272.384 526.777967,272.384 Z M546.230318,272 L546.230318,262.016 L552.310318,262.016 L557.878318,272 L560.214318,272 L554.358318,261.472 C557.174318,260.608 559.030318,258.528 559.030318,255.04 C559.030318,251.968 557.366318,248.832 551.606318,248.832 L544.118318,248.832 L544.118318,272 L546.230318,272 Z M551.254318,260.16 L546.230318,260.16 L546.230318,250.688 L550.774318,250.688 C554.390318,250.688 556.790318,251.488 556.790318,255.072 C556.790318,259.008 554.614318,260.16 551.254318,260.16 Z M566.706669,272 L569.202669,264.544 L578.546669,264.544 L581.042669,272 L583.410669,272 L575.410669,248.832 L572.466669,248.832 L564.594669,272 L566.706669,272 Z M577.938669,262.656 L569.842669,262.656 L573.906669,250.592 L577.938669,262.656 Z M592.46302,272 L592.46302,263.168 L596.36702,263.168 C601.77502,263.168 605.13502,261.12 605.13502,255.648 C605.13502,251.968 603.34302,248.832 597.42302,248.832 L590.35102,248.832 L590.35102,272 L592.46302,272 Z M596.51446,261.27909 L592.46302,261.28 L592.46302,250.688 L595.34302,250.688 C600.49502,250.688 602.89502,251.488 602.89502,255.712 C602.89502,260.388308 600.093943,261.247763 596.51446,261.27909 L596.51446,261.27909 Z M614.283371,272 L614.283371,261.024 L626.507371,261.024 L626.507371,272 L628.651371,272 L628.651371,248.832 L626.507371,248.832 L626.507371,259.136 L614.283371,259.136 L614.283371,248.832 L612.139371,248.832 L612.139371,272 L614.283371,272 Z M644.167722,272 L644.167722,262.816 L651.751722,248.832 L649.575722,248.832 L643.143722,260.768 L636.519722,248.832 L634.151722,248.832 L642.023722,262.912 L642.023722,272 L644.167722,272 Z" id="WRITINGANDPHOTOGRAPHY" fill="#A89662" fill-rule="nonzero"></path>
    </g>
</svg>