<svg viewBox="0 0 654 275" version="1.1" xmlns="http://www.w3.org/2000/svg" xmlns:xlink="http://www.w3.org/1999/xlink"><g fill="none" fill-rule="evenodd"><path d="M508.927 99.122c-.145-2.05-1.525-3.996-4.068-3.734-3.857.397-7.713.839-11.568 1.305l-4.956.259c-11.219.588-46.944 1.395-58.165 1.983-7.103.269-16.296.516-23.398.785 8.564-32.811 14.118-39.078 10.362-40.04-1.868-.479-4.014-.961-5.731 4.409-1.925 6.021-9.386 30.129-10.548 36.038-3.769.143-21.127 1.435-25.002 1.386-2.546-.032-3.873.809-3.843 2.859-.003.033-.006.064-.003.096.07 2.119 1.073 2.397 3.697 2.123 3.856-.403 7.796-.425 11.651-.896 3.267-.176 8.83-.571 12.098-.747-2.091 5.029-14.488 27.085-44.256 28.591l-.74.009c-.983.029-1.974 0-2.915-.266-.94-.258-1.802-.81-2.388-1.592-.6-.776-.918-1.724-1.136-2.663-.223-.993-.305-1.731-.487-3.211l-.131-1.095-.194-1.437a29.707 29.707 0 00-.527-2.836c-.432-1.866-1.105-3.641-2.121-5.205a10.283 10.283 0 00-4.121-3.688c-1.683-.818-3.543-1.258-5.428-1.337-1.893-.2-3.755.285-5.527.975-1.777.724-3.481 1.718-5.13 2.798l-1.031.695-.933.652-1.817 1.311c-2.383 1.751-4.653 3.502-6.921 5.125a74.042 74.042 0 01-3.385 2.302l-.717.447-.571.329c-.383.21-.765.423-1.16.604-1.54.728-3.305 1.341-4.971.787a1.819 1.819 0 01-1.041-.714c-.272-.335-.469-.724-.65-1.114-.349-.786-.606-1.605-.837-2.421l-.321-1.225-.424-1.73-.981-4.179c-.663-2.831-1.343-5.722-2.267-8.715l-.44-1.342-.542-1.457c-.385-.958-.787-1.917-1.278-2.811-.95-1.808-2.136-3.459-3.696-4.71-.802-.586-1.684-1.124-2.652-1.366-.962-.232-1.932-.425-2.952-.45a23.405 23.405 0 00-6.137.567c-1.012.251-2.034.501-3.063.88-.807.289-1.613.585-2.371.929a41.337 41.337 0 00-4.386 2.215c-2.793 1.597-5.33 3.395-7.759 5.253-4.834 3.731-9.189 7.758-13.44 11.69l-3.161 2.92-1.446 1.314-.884.772c-1.069.904-2.13 1.78-3.282 2.48-.578.341-1.183.649-1.84.774-.652.147-1.389-.074-1.804-.639-.795-1.149-.878-2.598-.974-3.912a28.739 28.739 0 01-.014-1.989l.093-2.417c.11-2.817.261-5.659.434-8.511.703-11.416 5.416-54.996 6.499-64.684.538-4.847 1.015-9.721 1.365-14.677.336-4.974.59-9.956.403-15.413-.163-4.084-1.35-7.659-5.458-10.422-.656-.442-3.855-2.009-8.329.636-.153.09-.297.188-.445.284-.476.306-.962.643-1.464 1.051l-.152.135a32.2 32.2 0 00-1.609 1.389c-.506.473-.974.972-1.456 1.462a41.027 41.027 0 00-1.029 1.034 87.616 87.616 0 00-2.439 2.72c-3.433 4.598-6.511 9.355-9.551 14.129-3.026 4.779-5.971 9.595-8.897 14.415-5.848 9.642-11.631 19.299-17.526 28.878-11.787 19.149-23.972 38.041-37.363 55.982-6.696 8.963-13.691 17.686-21.128 25.971-7.441 8.272-15.316 16.132-23.823 23.127-8.5 6.972-17.668 13.11-27.537 17.365-9.832 4.275-20.432 6.473-30.824 5.543-6.002-1.006-11.726-2.989-17.063-5.717-5.335-2.745-10.308-6.173-14.954-10.066-3.334-2.818-7.477-1.391-10.005 1.545-1.242 1.467-2.018 3.318-1.941 5.202.064 1.888 1.029 3.784 3.177 5.202 5.902 3.868 12.322 7.102 19.098 9.375 6.777 2.262 13.928 3.477 20.998 3.464a66.345 66.345 0 0018.004-1.271c5.873-1.224 11.544-3.147 16.909-5.597 10.759-4.888 20.359-11.633 29.123-19.095 8.764-7.49 16.723-15.753 24.185-24.369 7.456-8.629 14.401-17.637 21.018-26.848 13.226-18.436 25.133-37.686 36.606-57.117 5.737-9.717 11.35-19.493 17.01-29.219 2.832-4.861 5.677-9.708 8.591-14.498 2.923-4.78 5.888-9.54 9.118-14.028 3.293-4.662 9.665-4.363 9 2.8-.814 8.756-7.909 79.078-8.306 90.728a410.213 410.213 0 00-.206 8.797l-.016 2.889a62.184 62.184 0 00.077 3.329c.072 2.214.328 4.345.688 6.377.855 4.011 2.17 7.396 4.969 9.715 2.411 1.996 5.899 1.498 7.994.591 3.39-1.467 6.894-4.091 10.121-6.994l1.207-1.102 1.108-1.039 1.715-1.643 3.117-3.044c4.111-4.024 8.15-7.949 12.368-11.392 2.108-1.708 4.255-3.309 6.442-4.639a31.538 31.538 0 013.288-1.782c.548-.27 1.096-.482 1.64-.698a12.5 12.5 0 011.072-.367 10.42 10.42 0 012.329-.401 7.56 7.56 0 011.194.025c.404.039.754.257 1.07.491.602.522 1.023 1.216 1.385 1.925.184.356.342.726.497 1.098l.222.564.255.71c.85 2.501 1.577 5.215 2.304 7.984l1.115 4.223.687 2.456c.275.986.594 1.949.912 2.912.668 1.905 1.459 3.729 2.497 5.293 1.004 1.572 2.373 2.931 4.23 3.533 3.665 1.229 7.602.35 11.17-1.342.905-.398 1.778-.904 2.647-1.396l1.286-.779 1.102-.726a83.772 83.772 0 003.703-2.668c2.379-1.803 4.631-3.641 6.855-5.368l1.66-1.268 1.573-1.147c.745-.527 1.515-1.034 2.338-1.458 1.613-.953 3.665-.943 5.386-.233a4.4 4.4 0 012.054 1.844c.482.807.765 1.716.976 2.635.107.46.191.928.269 1.398l.267 1.756c.203 1.377.519 3.513 1.062 5.284.541 1.815 1.336 3.55 2.577 4.951 1.211 1.426 2.864 2.439 4.643 2.975 1.784.547 3.677.666 5.575.553l1.418-.037c.494-.006.808-.068 1.221-.1l2.332-.24c22.15-2.985 36.141-19.438 37.611-21.67.093 3.188.527 6.439 1.641 9.639a21.565 21.565 0 002.056 4.269c1.061 1.961 2.465 3.811 4.223 5.259.567.589 1.251.959 1.886 1.443l.98.68c.332.211.678.369 1.019.555.685.354 1.377.72 2.077 1.052l2.119.787c5.716 1.958 11.425 2.264 16.879 2.082 4.01-.195 5.484-3.461 5.007-6.38-.481-2.959-2.663-5.626-6.006-5.062-4.624.724-9.261 1.023-13.364.269-4.12-.728-7.554-2.513-9.609-6.078-.711-1.305-1.208-2.787-1.551-4.365-.786-6.899.3-14.461 1.28-17.678 6.033-.324 56.674-1.062 80.16-1.574v.034c2.302-.063 4.362-.122 6.129-.179l.048-.001v-.001a483.95 483.95 0 002.064-.07c3.88.122 7.757.219 11.632.274 2.632.036 3.839-2.159 3.725-4.275-.001-.029-.006-.056-.01-.084" fill="#A99763"/><path d="M164.883 223l4.134-12.349h15.476L188.627 223h3.922l-13.25-38.372h-4.876L161.385 223h3.498zm18.603-15.476h-13.409l6.731-19.981 6.678 19.981zM207.573 223v-34.556L228.031 223h4.505v-38.372h-3.339v34.079l-19.928-34.079h-5.088V223h3.392zm53.556.636c5.618 0 10.494-2.809 11.766-6.042l.583 5.406h2.65v-19.875h-14.734v3.127h11.5v3.975c0 4.876-3.656 10.494-11.182 10.494-7.314 0-13.41-3.604-13.41-16.801 0-10.759 5.3-16.96 13.94-16.96 6.2 0 9.91 2.65 10.653 9.858l3.339-.371c-.69-8.957-5.936-12.508-13.833-12.508-10.76 0-17.702 6.996-17.702 20.299 0 11.448 4.876 19.398 16.43 19.398zm51.064-.636v-3.074h-18.656v-14.84h16.96v-3.127h-16.96v-14.257h18.126v-3.074h-21.677V223h22.207zm32.939 0v-3.074h-17.596v-35.298h-3.551V223h21.147zm14.971 0v-38.372h-3.55V223h3.55zm18.205 0v-34.556L398.766 223h4.505v-38.372h-3.34v34.079l-19.927-34.079h-5.088V223h3.392zm61.982 0v-3.074h-18.656v-14.84h16.96v-3.127h-16.96v-14.257h18.126v-3.074h-21.677V223h22.207zm38.158 0v-35.298h11.66v-3.074h-26.924v3.074h11.713V223h3.551zm25.2 0v-16.536h10.07L522.942 223h3.869l-9.7-17.437c4.665-1.431 7.739-4.876 7.739-10.653 0-5.088-2.756-10.282-12.296-10.282H500.15V223h3.498zm8.322-19.61h-8.321v-15.688h7.526c5.989 0 9.964 1.325 9.964 7.261 0 6.519-3.604 8.427-9.17 8.427zM537.7 223l4.134-12.349h15.476L561.444 223h3.922l-13.25-38.372h-4.876L534.202 223h3.498zm18.603-15.476h-13.409l6.731-19.981 6.678 19.981zM587.068 223l12.402-38.372h-3.604l-11.183 35.245-11.713-35.245h-3.922L582.192 223h4.876zm25.996 0v-38.372h-3.551V223h3.55zm24.723.636c6.89 0 13.091-3.021 13.091-10.865 0-6.587-4.896-8.637-10.016-10.203l-.53-.16-.265-.08-.53-.157c-5.036-1.484-9.859-2.915-9.859-8.215 0-3.816 2.28-6.837 8.904-6.837 6.466 0 7.95 4.187 8.692 7.897l3.392-.424c-.9-7.791-5.565-10.653-12.243-10.653-7.26 0-12.508 3.975-12.508 10.176 0 6.928 4.847 8.964 9.904 10.43l.515.148c.343.097.687.192 1.03.287 4.981 1.378 9.751 2.756 9.751 8.268 0 5.777-4.929 7.314-9.328 7.314-6.943 0-9.063-3.816-10.07-8.109l-3.55.53c1.112 6.943 5.14 10.653 13.62 10.653z" fill="#575649" fill-rule="nonzero"/><path d="M167.256 272l5.568-20.48 5.408 20.48h2.72l4.864-23.168h-2.112l-4.128 20.928-5.472-20.928h-2.464l-5.504 20.608-4.224-20.608h-2.272L164.76 272h2.496zm26.812 0v-9.984h6.08l5.568 9.984h2.336l-5.856-10.528c2.816-.864 4.672-2.944 4.672-6.432 0-3.072-1.664-6.208-7.424-6.208h-7.488V272h2.112zm5.024-11.84h-5.024v-9.472h4.544c3.616 0 6.016.8 6.016 4.384 0 3.936-2.176 5.088-5.536 5.088zM216.497 272v-23.168h-2.144V272h2.144zm15.196 0v-21.312h7.04v-1.856h-16.256v1.856h7.072V272h2.144zm15.164 0v-23.168h-2.144V272h2.144zm10.909 0v-20.864L270.118 272h2.72v-23.168h-2.016v20.576l-12.032-20.576h-3.072V272h2.048zm32.252.384c3.392 0 6.336-1.696 7.104-3.648l.352 3.264h1.6v-12h-8.896v1.888h6.944v2.4c0 2.944-2.208 6.336-6.752 6.336-4.416 0-8.096-2.176-8.096-10.144 0-6.496 3.2-10.24 8.416-10.24 3.744 0 5.984 1.6 6.432 5.952l2.016-.224c-.416-5.408-3.584-7.552-8.352-7.552-6.496 0-10.688 4.224-10.688 12.256 0 6.912 2.944 11.712 9.92 11.712zm27.033-.384l2.496-7.456h9.344l2.496 7.456h2.368l-8-23.168h-2.944L314.939 272h2.112zm11.232-9.344h-8.096l4.064-12.064 4.032 12.064zm14.46 9.344v-20.864L355.095 272h2.72v-23.168H355.8v20.576l-12.032-20.576h-3.072V272h2.048zm30.109 0c8.288 0 12.032-4.832 12.032-11.936 0-6.912-3.456-11.232-11.488-11.232h-6.72V272h6.176zm.16-1.856h-4.192v-19.456h4.384c5.856 0 9.44 2.208 9.44 9.856 0 6.08-3.328 9.6-9.632 9.6zM403.756 272v-8.832h3.904c5.408 0 8.768-2.048 8.768-7.52 0-3.68-1.792-6.816-7.712-6.816h-7.072V272h2.112zm4.052-10.72h-4.052v-10.592h2.88c5.152 0 7.552.8 7.552 5.024 0 4.676-2.8 5.536-6.38 5.567zM425.577 272v-10.976H437.8V272h2.144v-23.168H437.8v10.304h-12.224v-10.304h-2.144V272h2.144zm31.868.384c6.88 0 10.528-4.928 10.528-12.48 0-6.432-3.264-11.488-10.08-11.488-6.88 0-10.688 5.056-10.688 11.968 0 6.944 3.264 12 10.24 12zm.128-1.888c-4.8 0-8.128-3.552-8.128-10.112 0-6.528 3.584-10.08 8.384-10.08 4.736 0 7.936 3.52 7.936 9.92 0 6.88-3.424 10.272-8.192 10.272zM480.289 272v-21.312h7.04v-1.856h-16.256v1.856h7.072V272h2.144zm20.38.384c6.88 0 10.529-4.928 10.529-12.48 0-6.432-3.264-11.488-10.08-11.488-6.88 0-10.688 5.056-10.688 11.968 0 6.944 3.264 12 10.24 12zm.129-1.888c-4.8 0-8.128-3.552-8.128-10.112 0-6.528 3.584-10.08 8.384-10.08 4.736 0 7.936 3.52 7.936 9.92 0 6.88-3.424 10.272-8.192 10.272zm25.98 1.888c3.392 0 6.336-1.696 7.104-3.648l.352 3.264h1.6v-12h-8.896v1.888h6.944v2.4c0 2.944-2.208 6.336-6.752 6.336-4.416 0-8.096-2.176-8.096-10.144 0-6.496 3.2-10.24 8.416-10.24 3.744 0 5.984 1.6 6.432 5.952l2.016-.224c-.416-5.408-3.584-7.552-8.352-7.552-6.496 0-10.688 4.224-10.688 12.256 0 6.912 2.944 11.712 9.92 11.712zM546.23 272v-9.984h6.08l5.568 9.984h2.336l-5.856-10.528c2.816-.864 4.672-2.944 4.672-6.432 0-3.072-1.664-6.208-7.424-6.208h-7.488V272h2.112zm5.024-11.84h-5.024v-9.472h4.544c3.616 0 6.016.8 6.016 4.384 0 3.936-2.176 5.088-5.536 5.088zM566.707 272l2.496-7.456h9.344l2.496 7.456h2.368l-8-23.168h-2.944L564.595 272h2.112zm11.232-9.344h-8.096l4.064-12.064 4.032 12.064zM592.463 272v-8.832h3.904c5.408 0 8.768-2.048 8.768-7.52 0-3.68-1.792-6.816-7.712-6.816h-7.072V272h2.112zm4.051-10.72h-4.051v-10.592h2.88c5.152 0 7.552.8 7.552 5.024 0 4.676-2.801 5.536-6.38 5.567zm17.77 10.72v-10.976h12.223V272h2.144v-23.168h-2.144v10.304h-12.224v-10.304h-2.144V272h2.144zm29.884 0v-9.184l7.584-13.984h-2.176l-6.432 11.936-6.624-11.936h-2.368l7.872 14.08V272h2.144z" fill="#A89662" fill-rule="nonzero"/></g></svg>
