<svg viewBox="0 0 712 287" xmlns="http://www.w3.org/2000/svg">
<style>
    .fill-gold-p3 {
        fill: #BBA25F;
        fill: color(display-p3 0.73 0.64 0.37);
    }
</style>
<g fill="none" fill-rule="evenodd"><path d="M158.668 259h-11.24l-.172.002a1.366 1.366 0 00-1.256 1.38v21.235c0 .75.61 1.383 1.333 1.383.751 0 1.364-.62 1.364-1.383v-9.203h8.651c.753 0 1.365-.618 1.365-1.381 0-.793-.6-1.415-1.365-1.415h-8.651v-7.82h9.971c.734 0 1.332-.635 1.332-1.415 0-.75-.61-1.383-1.332-1.383M177.548 280.24c-4.832 0-8.766-4.145-8.766-9.24 0-5.163 3.851-9.208 8.766-9.208 4.733 0 8.608 4.132 8.637 9.204-.03 5.097-3.905 9.244-8.637 9.244zm0-21.24c-6.44 0-11.513 5.269-11.548 12.004.035 6.726 5.107 11.996 11.548 11.996 6.388 0 11.417-5.27 11.452-12.004-.035-6.727-5.064-11.996-11.452-11.996zM213.559 259c-.764 0-1.408.633-1.408 1.383v12.799c0 3.841-3.226 6.99-7.18 7.02-3.927-.03-7.122-3.179-7.122-7.02v-12.8c0-.762-.647-1.382-1.44-1.382-.764 0-1.409.633-1.409 1.383v12.799c0 5.413 4.47 9.818 9.966 9.818 5.533 0 10.034-4.405 10.034-9.818v-12.8c0-.762-.647-1.382-1.441-1.382M239.588 259.138c-.747 0-1.379.636-1.379 1.388v16.767l-12.671-17.68c-.384-.606-1.225-.838-1.979-.348-.45.354-.645.896-.523 1.436v20.911c0 .753.631 1.388 1.379 1.388s1.38-.635 1.38-1.388V264.75l12.51 17.493c.085.17.21.267.205.246.28.34.643.512 1.078.512.778 0 1.412-.622 1.412-1.388v-21.086c0-.766-.634-1.388-1.412-1.388M254.762 280.203h-2.909v-18.406h2.905c5.177.03 9.389 4.173 9.389 9.236 0 5.056-4.21 9.17-9.385 9.17zm0-21.203h-4.352c-.764 0-1.41.633-1.41 1.383v21.234c0 .727.556 1.32 1.344 1.383h4.418c6.748 0 12.238-5.37 12.238-11.967 0-6.635-5.49-12.033-12.238-12.033zM285.664 261.797c.75 0 1.336-.62 1.336-1.414 0-.776-.586-1.383-1.336-1.383h-11.328c-.724 0-1.336.633-1.336 1.383v21.234c0 .727.527 1.32 1.224 1.38l11.44.003c.75 0 1.336-.607 1.336-1.383 0-.793-.586-1.414-1.336-1.414h-9.961v-7.789h8.64c.723 0 1.335-.631 1.335-1.381 0-.78-.599-1.415-1.336-1.415h-8.639v-7.82h9.961M306.03 266.097c0 2.293-1.855 4.204-4.12 4.26h-5.08v-8.52h4.952a4.26 4.26 0 014.249 4.26zm2.688 13.56a1.468 1.468 0 01-.062-.153c-.117-.355-.258-1.061-.258-2.416 0-2.754-1.618-4.372-2.745-5.167a7.058 7.058 0 003.097-5.824c0-3.87-3.126-7.02-6.968-7.02h-6.248l-.21.002a1.39 1.39 0 00-1.246 1.362v20.953c0 .74.623 1.364 1.36 1.364.767 0 1.391-.611 1.391-1.364v-8.308h4.744l.183.056c.364.057 1.458.392 2.334 1.015 1.084.806 1.587 1.737 1.587 2.931 0 1.846.21 3.07.672 3.96.464.932 1.347 1.357 2.035 1.357.169 0 .318-.02.385-.032l.212-.04c.676-.261 1.044-.984.855-1.785a1.404 1.404 0 00-1.118-.89zM330.115 255.8a1.3 1.3 0 00-1.296 1.299v28.6a1.3 1.3 0 001.296 1.301 1.3 1.3 0 001.296-1.3v-28.601a1.3 1.3 0 00-1.296-1.299M383.162 259.127c-.712-.31-1.518-.02-1.885.713l-7.664 18.147-5.292-12.51a1.522 1.522 0 00-2.669.056l-5.294 12.458-7.666-18.15a1.399 1.399 0 00-1.282-.841c-.211 0-.414.048-.563.123-.346.144-.621.431-.757.79-.134.357-.116.751.036 1.048l8.845 20.895c.059.285.182.52.4.738l.128.117a1.42 1.42 0 001.529.12h.106l.178-.177a1.21 1.21 0 00.265-.352.86.86 0 00.125-.306L367 269.545l5.282 12.491.065.167c.03.061.1.183.182.284.08.116.175.19.26.257.224.166.48.252.857.252h.109l.043-.007c.468-.067.92-.418 1.131-.887l8.93-21.106c.168-.332.186-.726.053-1.084a1.374 1.374 0 00-.75-.785M401.098 266.114c0 2.325-1.877 4.26-4.17 4.318h-5.142v-8.635h5.012c2.372 0 4.3 1.938 4.3 4.317zm2.721 13.744a1.102 1.102 0 01-.063-.156c-.12-.36-.262-1.074-.262-2.448 0-2.792-1.638-4.431-2.778-5.236a7.161 7.161 0 003.134-5.904c0-3.923-3.164-7.114-7.052-7.114h-6.324l-.212.002c-.695.06-1.262.679-1.262 1.38v21.235c0 .75.63 1.383 1.377 1.383.777 0 1.409-.62 1.409-1.383v-8.42h4.8l.187.057c.368.058 1.476.398 2.362 1.03 1.096.816 1.605 1.76 1.605 2.97 0 1.869.212 3.11.68 4.013.47.944 1.363 1.375 2.06 1.375.17 0 .322-.02.39-.032l.213-.041c.687-.264 1.059-.997.866-1.81a1.422 1.422 0 00-1.13-.901zM413.483 259c-.804 0-1.483.633-1.483 1.383v21.234c0 .75.679 1.383 1.483 1.383.837 0 1.517-.62 1.517-1.383v-21.234c0-.763-.68-1.383-1.517-1.383M438.624 259h-15.247c-.746 0-1.377.633-1.377 1.383 0 .78.617 1.414 1.377 1.414h6.245v19.82a1.4 1.4 0 001.379 1.383c.746 0 1.375-.633 1.375-1.383v-19.82h6.248c.76 0 1.376-.634 1.376-1.414 0-.75-.63-1.383-1.376-1.383M459.665 261.797c.749 0 1.335-.62 1.335-1.414 0-.776-.586-1.383-1.335-1.383h-11.33c-.724 0-1.335.633-1.335 1.383v21.234c0 .727.526 1.32 1.223 1.38l11.442.003c.749 0 1.335-.607 1.335-1.383 0-.793-.586-1.414-1.335-1.414h-9.963v-7.789h8.641c.724 0 1.336-.631 1.336-1.381 0-.78-.599-1.415-1.336-1.415h-8.641v-7.82h9.963M480.913 266.097c0 2.293-1.856 4.204-4.121 4.26h-5.081v-8.52h4.953a4.26 4.26 0 014.249 4.26zm2.687 13.56a1.249 1.249 0 01-.063-.153c-.117-.355-.258-1.06-.258-2.416 0-2.754-1.618-4.372-2.745-5.166a7.064 7.064 0 003.097-5.825c0-3.87-3.125-7.02-6.967-7.02h-6.248l-.21.002a1.391 1.391 0 00-1.248 1.362v20.953c0 .74.624 1.364 1.362 1.364.767 0 1.39-.611 1.39-1.364v-8.308h4.744l.184.056c.364.057 1.46.392 2.334 1.015 1.083.806 1.587 1.738 1.587 2.931 0 1.844.208 3.069.671 3.96.465.932 1.348 1.357 2.036 1.357.167 0 .317-.02.384-.032l.212-.04c.678-.261 1.045-.984.855-1.785a1.4 1.4 0 00-1.117-.89zM504.996 255.8a1.3 1.3 0 00-1.296 1.299v28.6a1.3 1.3 0 001.296 1.301 1.3 1.3 0 001.296-1.3v-28.601a1.3 1.3 0 00-1.296-1.299M540.27 271.423c-1.437-.97-3.378-1.67-5.991-2.144-2.063-.393-3.605-.934-4.586-1.606-.977-.671-1.385-1.325-1.411-2.24 0-.95.541-1.877 1.516-2.6 1.1-.787 2.645-1.238 4.24-1.238 2.357 0 4.205 1.211 5.819 2.27.578.4 1.46.209 1.798-.36.39-.61.24-1.384-.366-1.81-1.834-1.201-4.12-2.695-7.25-2.695-2.168 0-4.216.621-5.767 1.75-1.666 1.213-2.584 2.876-2.584 4.682 0 1.762.916 3.33 2.57 4.406 1.326.895 3.13 1.544 5.575 1.984 2.182.417 3.857 1.004 4.971 1.737 1.087.742 1.57 1.542 1.57 2.591 0 1.064-.595 2.08-1.683 2.862-1.171.864-2.843 1.36-4.676 1.36-3.255 0-6.115-2.11-6.893-2.74-.528-.467-1.4-.39-1.856.177-.416.539-.34 1.346.196 1.82 1.566 1.244 4.771 3.334 8.636 3.371h.006c2.274 0 4.446-.666 6.118-1.877 1.765-1.278 2.778-3.09 2.778-4.973 0-1.871-.998-3.595-2.73-4.727M561.617 261.76c2.206 0 4.313.712 6.087 2.055.6.467 1.631.27 1.93-.205.251-.243.384-.593.364-.958a1.437 1.437 0 00-.554-1.056 13.12 13.12 0 00-7.83-2.596c-7.074.034-12.614 5.334-12.614 12.064 0 6.582 5.66 11.936 12.617 11.936 2.845 0 5.624-.911 7.814-2.556.329-.232.54-.618.561-1.031.02-.36-.105-.7-.343-.947-.411-.587-1.233-.794-2.025-.271-1.599 1.319-3.733 2.045-6.007 2.045-5.395 0-9.784-4.116-9.784-9.176 0-5.13 4.389-9.304 9.784-9.304M578.484 259c-.804 0-1.484.633-1.484 1.383v21.234c0 .75.68 1.383 1.484 1.383.836 0 1.516-.62 1.516-1.383v-21.234c0-.763-.68-1.383-1.516-1.383M601.665 261.797c.749 0 1.335-.62 1.335-1.414 0-.776-.586-1.383-1.335-1.383h-11.33c-.724 0-1.335.633-1.335 1.383v21.234c0 .727.526 1.32 1.223 1.38l11.442.003c.749 0 1.335-.607 1.335-1.383 0-.793-.586-1.414-1.335-1.414h-9.963v-7.789h8.641c.724 0 1.336-.631 1.336-1.381 0-.78-.599-1.415-1.336-1.415h-8.641v-7.82h9.963M627.59 259.138c-.748 0-1.38.635-1.38 1.387v16.768l-12.673-17.68c-.38-.607-1.222-.837-1.978-.349a1.41 1.41 0 00-.524 1.436v20.912c0 .753.632 1.388 1.38 1.388.748 0 1.379-.635 1.379-1.388V264.75l12.51 17.493c.09.177.215.261.206.244.28.34.642.514 1.08.514a1.4 1.4 0 001.41-1.388v-21.087a1.4 1.4 0 00-1.41-1.387M652.624 259h-15.247c-.746 0-1.377.633-1.377 1.383 0 .78.617 1.414 1.377 1.414h6.245v19.82a1.4 1.4 0 001.379 1.383c.746 0 1.375-.633 1.375-1.383v-19.82h6.248c.76 0 1.376-.634 1.376-1.414 0-.75-.63-1.383-1.376-1.383M662.483 259c-.804 0-1.483.633-1.483 1.383v21.234c0 .75.68 1.383 1.483 1.383.837 0 1.517-.62 1.517-1.383v-21.234c0-.763-.68-1.383-1.517-1.383M686.27 271.423c-1.439-.97-3.38-1.67-5.992-2.144-2.06-.393-3.604-.934-4.586-1.606-.975-.671-1.384-1.324-1.41-2.24 0-.95.541-1.877 1.516-2.6 1.1-.787 2.645-1.238 4.242-1.238 2.355 0 4.204 1.211 5.817 2.268.577.404 1.458.21 1.8-.36a1.312 1.312 0 00-.368-1.807c-1.737-1.139-4.118-2.696-7.25-2.696-2.167 0-4.216.621-5.767 1.75-1.666 1.215-2.585 2.877-2.585 4.682 0 1.762.917 3.328 2.571 4.405 1.324.896 3.13 1.546 5.573 1.985 2.184.417 3.86 1.004 4.972 1.737 1.087.742 1.57 1.541 1.57 2.591 0 1.065-.596 2.08-1.683 2.862-1.171.864-2.843 1.36-4.676 1.36-3.252 0-6.116-2.11-6.894-2.74-.524-.464-1.396-.39-1.854.177-.416.538-.34 1.346.198 1.82 1.564 1.243 4.765 3.334 8.634 3.371h.005c2.273 0 4.446-.666 6.118-1.877 1.767-1.278 2.779-3.091 2.779-4.973 0-1.871-.998-3.595-2.73-4.727M710.622 259h-15.246c-.747 0-1.376.633-1.376 1.383 0 .78.616 1.414 1.376 1.414h6.247v19.82c0 .75.63 1.383 1.376 1.383a1.4 1.4 0 001.378-1.383v-19.82h6.245c.76 0 1.378-.634 1.378-1.414a1.4 1.4 0 00-1.378-1.383" class="fill-gold-p3"/><path d="M166.585 184h-4.083L146 226h4.91s13.142-34.847 13.561-36.68c.667 2.386 13.504 36.68 13.504 36.68H183l-16.415-42M237 226h-5.606l-23.088-35.249h-.232c.31 4.137.463 7.929.463 11.376V226H204v-42h5.548l23.032 35.105h.231c-.04-.516-.126-2.178-.26-4.984-.135-2.807-.183-4.812-.145-6.019V184H237v42M296 226h-5.606l-23.089-35.249h-.231c.308 4.137.463 7.929.463 11.376V226H263v-42h5.548l23.032 35.105h.23c-.039-.516-.125-2.178-.26-4.984-.136-2.807-.184-4.812-.144-6.019V184H296v42M346 226h-24v-42h24v4.338h-18.994v13.53h17.845v4.31h-17.845v15.455H346V226M367 213h14v-4h-14zM422.767 226l-14.388-37.232h-.23c.269 2.95.405 6.455.405 10.514V226H404v-42h7.425l13.43 34.645h.232L438.632 184H446v42h-4.93v-27.062c0-3.103.135-6.472.405-10.112h-.232L426.74 226h-3.973M496 226h-24v-42h24v4.338h-18.995v13.53h17.847v4.31h-17.847v15.455H496V226M519 226h5v-42h-5zM593.481 226h-4.963v-37.662H575V184h32v4.338h-13.519V226M660 226h-4.9v-19.765h-22.199V226H628v-42h4.901v17.868H655.1V184h4.9v42M710 226h-24v-42h24v4.338h-18.995v13.53h17.847v4.31h-17.847v15.455H710V226" fill="#FCF8F3"/><path fill="#FCF8F3" d="M160.989 212.95h14.172v-4.386h-14.172z"/><path d="M509.886 99.045c-.145-2.052-1.526-4.002-4.075-3.74-3.864.399-7.727.84-11.589 1.307l-4.966.26c-11.24.59-47.032 1.398-58.274 1.986-7.117.27-16.327.517-23.443.787 8.58-32.859 14.146-39.134 10.382-40.098-1.872-.479-4.021-.962-5.742 4.415-1.928 6.03-9.404 30.172-10.567 36.09-3.777.143-21.168 1.437-25.05 1.387-2.55-.032-3.88.812-3.85 2.864-.003.032-.006.063-.004.096.07 2.121 1.075 2.4 3.704 2.126 3.865-.403 7.812-.426 11.673-.897 3.274-.176 8.847-.572 12.121-.748-2.095 5.035-14.516 27.123-44.339 28.632l-.742.008c-.984.03-1.976 0-2.92-.266-.942-.258-1.805-.811-2.393-1.595-.6-.776-.92-1.727-1.137-2.666-.223-.994-.305-1.734-.487-3.216l-.132-1.097-.195-1.438a29.11 29.11 0 00-.528-2.84c-.434-1.87-1.108-3.647-2.124-5.212a10.3 10.3 0 00-4.13-3.694c-1.686-.819-3.549-1.26-5.438-1.34-1.896-.2-3.761.286-5.538.977-1.78.726-3.486 1.72-5.14 2.803l-1.032.695-.935.653-1.82 1.313c-2.388 1.754-4.662 3.507-6.933 5.133a76.324 76.324 0 01-3.392 2.305l-.72.447-.57.329c-.385.212-.767.425-1.163.605-1.543.73-3.311 1.344-4.98.789a1.828 1.828 0 01-1.044-.716c-.272-.335-.47-.725-.65-1.115-.351-.787-.607-1.608-.84-2.424l-.32-1.228-.427-1.732-.981-4.184c-.665-2.835-1.346-5.73-2.271-8.728l-.442-1.343-.542-1.46c-.386-.96-.788-1.92-1.281-2.814-.952-1.812-2.14-3.465-3.703-4.718-.804-.587-1.687-1.126-2.657-1.367-.964-.232-1.936-.426-2.957-.451a23.442 23.442 0 00-6.149.568c-1.015.251-2.037.501-3.07.88-.807.29-1.615.587-2.374.93-1.548.661-3 1.419-4.395 2.22-2.798 1.599-5.34 3.4-7.772 5.26-4.845 3.737-9.208 7.77-13.466 11.706l-3.168 2.925-1.449 1.316-.884.772c-1.072.906-2.135 1.784-3.29 2.484-.578.341-1.184.65-1.843.775-.652.148-1.39-.074-1.807-.64-.797-1.15-.88-2.601-.976-3.918a29.122 29.122 0 01-.015-1.99l.094-2.422c.111-2.82.26-5.666.434-8.522.706-11.433 5.427-55.075 6.512-64.777.54-4.854 1.018-9.735 1.367-14.697.338-4.982.592-9.972.405-15.435-.163-4.09-1.353-7.67-5.469-10.437-.657-.443-3.862-2.012-8.344.636-.154.091-.298.19-.446.285-.477.306-.963.644-1.467 1.053l-.152.134c-.556.45-1.095.913-1.613 1.392-.506.474-.975.974-1.458 1.463-.403.392-.764.753-1.032 1.034v.001a89.87 89.87 0 00-2.442 2.725c-3.44 4.605-6.524 9.368-9.57 14.149-3.03 4.786-5.982 9.609-8.914 14.436-5.859 9.656-11.652 19.327-17.559 28.919-11.809 19.176-24.017 38.095-37.432 56.06-6.71 8.977-13.719 17.712-21.169 26.008-7.455 8.285-15.345 16.156-23.868 23.161-8.516 6.983-17.7 13.13-27.59 17.39-9.85 4.281-20.469 6.482-30.88 5.55-6.014-1.007-11.75-2.992-17.096-5.724-5.344-2.75-10.328-6.182-14.983-10.08-3.339-2.822-7.49-1.393-10.024 1.547-1.244 1.47-2.022 3.322-1.944 5.209.064 1.89 1.03 3.79 3.183 5.209 5.913 3.875 12.345 7.113 19.133 9.389 6.79 2.266 13.955 3.482 21.039 3.469a66.456 66.456 0 0018.038-1.274c5.884-1.224 11.566-3.15 16.94-5.603 10.78-4.896 20.398-11.65 29.179-19.123 8.78-7.501 16.754-15.776 24.23-24.405 7.47-8.64 14.428-17.66 21.058-26.886 13.251-18.461 25.18-37.738 36.676-57.197 5.746-9.73 11.37-19.521 17.041-29.26 2.838-4.868 5.688-9.723 8.607-14.52 2.928-4.787 5.9-9.553 9.135-14.047 3.299-4.669 9.684-4.37 9.017 2.803-.816 8.768-7.923 79.19-8.322 90.858-.097 2.92-.171 5.85-.206 8.81l-.015 2.892c-.01 1.122.026 2.231.076 3.335.072 2.216.33 4.35.69 6.385.856 4.017 2.174 7.407 4.978 9.729 2.416 2 5.91 1.5 8.01.592 3.395-1.47 6.905-4.096 10.139-7.004l1.21-1.103 1.11-1.041 1.718-1.646 3.124-3.048c4.118-4.03 8.164-7.96 12.39-11.408 2.112-1.71 4.264-3.314 6.454-4.646 1.093-.668 2.195-1.281 3.294-1.785.55-.27 1.098-.482 1.644-.699.324-.125.693-.257 1.073-.367a10.55 10.55 0 012.334-.402 7.68 7.68 0 011.196.026c.404.038.756.257 1.072.49.604.524 1.025 1.219 1.388 1.93.184.356.342.726.498 1.1l.223.563.255.71c.85 2.507 1.58 5.223 2.308 7.997l1.117 4.229.69 2.459c.275.987.594 1.953.912 2.917.669 1.908 1.461 3.734 2.502 5.3 1.005 1.574 2.377 2.935 4.238 3.537 3.672 1.232 7.616.35 11.191-1.342.906-.399 1.781-.906 2.652-1.4l1.288-.78 1.105-.726a83.8 83.8 0 003.71-2.672c2.382-1.806 4.64-3.646 6.867-5.376l1.663-1.27 1.577-1.149c.747-.526 1.518-1.035 2.343-1.458 1.616-.955 3.671-.946 5.394-.235a4.417 4.417 0 012.06 1.848c.482.807.765 1.717.976 2.638.108.46.192.929.27 1.4l.268 1.76c.203 1.378.52 3.516 1.064 5.29.542 1.818 1.338 3.555 2.581 4.958 1.214 1.428 2.87 2.443 4.652 2.98 1.788.547 3.684.667 5.586.553l1.421-.037c.494-.005.809-.068 1.223-.1l2.337-.24c22.19-2.99 36.208-19.466 37.681-21.7.093 3.19.528 6.447 1.644 9.651a21.605 21.605 0 002.06 4.276c1.063 1.963 2.47 3.816 4.23 5.266.568.59 1.254.96 1.89 1.446l.983.68c.332.212.679.37 1.02.556.687.355 1.38.721 2.08 1.054l2.124.787c5.727 1.962 11.448 2.268 16.912 2.086 4.016-.196 5.494-3.467 5.016-6.39-.482-2.963-2.668-5.634-6.018-5.069-4.632.725-9.278 1.024-13.388.27-4.128-.73-7.569-2.517-9.628-6.087-.712-1.308-1.21-2.791-1.554-4.371-.788-6.91.3-14.482 1.282-17.704 6.045-.324 56.781-1.063 80.31-1.576v.035c2.309-.064 4.372-.122 6.142-.18l.048-.001v-.001a519.7 519.7 0 002.068-.07c3.887.122 7.772.22 11.654.274 2.637.037 3.846-2.162 3.732-4.281 0-.029-.006-.056-.01-.084" class="fill-gold-p3"/></g></svg>