<svg viewBox="0 0 712 287" xmlns="http://www.w3.org/2000/svg">
<style>
    .fill-gold-p3 {
        fill: #BBA25F;
        fill: color(display-p3 0.73 0.64 0.37);
    }
</style>
<g fill="none" fill-rule="evenodd"><path d="M159.084 258.848h-11.599l-.176.003c-.739.057-1.297.646-1.297 1.372v21.126c0 .745.63 1.374 1.376 1.374.776 0 1.407-.616 1.407-1.374v-9.156h8.928c.777 0 1.408-.616 1.408-1.375 0-.788-.619-1.407-1.408-1.407h-8.928v-7.78h10.289c.759 0 1.375-.631 1.375-1.408 0-.746-.629-1.375-1.375-1.375M177.588 279.94c-4.833 0-8.766-4.18-8.766-9.316 0-5.206 3.85-9.284 8.766-9.284 4.733 0 8.607 4.165 8.637 9.28-.03 5.139-3.905 9.32-8.637 9.32zm0-21.416c-6.441 0-11.514 5.313-11.548 12.103.034 6.783 5.107 12.096 11.548 12.096 6.387 0 11.417-5.313 11.452-12.103-.035-6.783-5.065-12.096-11.452-12.096zM213.362 258.848c-.745 0-1.375.629-1.375 1.375v12.733c0 3.822-3.149 6.955-7.011 6.984-3.836-.029-6.957-3.162-6.957-6.984v-12.733c0-.759-.631-1.375-1.407-1.375-.746 0-1.375.629-1.375 1.375v12.733c0 5.386 4.366 9.767 9.734 9.767 5.403 0 9.799-4.381 9.799-9.767v-12.733c0-.759-.632-1.375-1.408-1.375M239.773 259.075c-.745 0-1.375.63-1.375 1.375v16.619l-12.636-17.523c-.383-.601-1.222-.83-1.973-.345-.449.351-.644.888-.522 1.422v20.726c0 .745.63 1.374 1.376 1.374.745 0 1.374-.629 1.374-1.374v-16.713l12.476 17.336c.086.17.211.265.205.244.28.337.641.507 1.075.507.776 0 1.408-.616 1.408-1.374V260.45c0-.758-.632-1.375-1.408-1.375M254.229 279.94h-2.838v-18.309h2.834c5.05.029 9.158 4.151 9.158 9.187 0 5.03-4.107 9.122-9.154 9.122zm0-21.092h-4.245c-.746 0-1.375.629-1.375 1.375v21.126c0 .722.542 1.311 1.31 1.374h4.31c6.582 0 11.937-5.341 11.937-11.905 0-6.6-5.355-11.97-11.937-11.97zM285.401 261.631c.772 0 1.375-.618 1.375-1.408a1.36 1.36 0 00-1.375-1.375h-11.664c-.745 0-1.375.629-1.375 1.375v21.126c0 .722.542 1.311 1.26 1.372l11.779.002c.772 0 1.375-.603 1.375-1.374 0-.79-.603-1.409-1.375-1.409h-10.256v-7.747h8.896c.745 0 1.375-.629 1.375-1.375 0-.776-.617-1.407-1.375-1.407h-8.896v-7.78h10.256M305.932 265.926c0 2.311-1.875 4.238-4.165 4.295h-5.138v-8.59h5.008a4.3 4.3 0 014.295 4.295zm2.717 13.672a1.314 1.314 0 01-.062-.156c-.119-.357-.261-1.069-.261-2.435 0-2.776-1.635-4.408-2.775-5.209a7.116 7.116 0 003.131-5.872c0-3.903-3.16-7.078-7.045-7.078h-6.318l-.212.003a1.4 1.4 0 00-1.26 1.372v21.126c0 .745.629 1.374 1.375 1.374.776 0 1.407-.616 1.407-1.374v-8.378h4.796l.185.058c.368.057 1.475.395 2.36 1.023 1.096.812 1.606 1.75 1.606 2.955 0 1.861.21 3.096.678 3.993.47.939 1.363 1.367 2.057 1.367.171 0 .323-.019.39-.032l.214-.04c.684-.264 1.056-.992.865-1.799-.174-.479-.613-.819-1.131-.898zM330.284 255.543c-.722 0-1.31.589-1.31 1.311v28.836c0 .722.588 1.31 1.31 1.31.722 0 1.31-.588 1.31-1.31v-28.836c0-.722-.588-1.311-1.31-1.311M382.915 259.092c-.705-.307-1.496-.019-1.856.706l-7.55 17.967-5.212-12.388a1.496 1.496 0 00-2.628.057l-5.215 12.335-7.551-17.97a1.376 1.376 0 00-1.263-.833c-.208 0-.407.048-.554.123a1.357 1.357 0 00-.746.781c-.132.354-.113.745.035 1.038l8.713 20.688c.057.28.178.514.392.728l.128.118a1.386 1.386 0 001.504.119h.104l.175-.172c.072-.072.183-.183.264-.353a.889.889 0 00.124-.302l5.216-12.327 5.204 12.367.062.162c.029.06.099.183.181.284.078.116.173.19.256.255.221.164.472.248.844.248h.107l.043-.005c.461-.067.907-.415 1.114-.878l8.796-20.896c.164-.329.184-.72.052-1.074a1.358 1.358 0 00-.739-.778M400.976 265.926c0 2.311-1.875 4.238-4.165 4.295h-5.138v-8.59h5.009a4.3 4.3 0 014.294 4.295zm2.718 13.672a1.41 1.41 0 01-.063-.155c-.119-.358-.26-1.071-.26-2.436 0-2.776-1.636-4.408-2.775-5.209a7.116 7.116 0 003.131-5.872c0-3.903-3.16-7.078-7.045-7.078h-6.318l-.212.003a1.4 1.4 0 00-1.26 1.372v21.126c0 .745.629 1.374 1.375 1.374.775 0 1.406-.616 1.406-1.374v-8.378h4.797l.185.058c.368.057 1.475.395 2.36 1.023 1.095.812 1.605 1.75 1.605 2.955 0 1.862.21 3.096.678 3.993.47.939 1.363 1.367 2.057 1.367.172 0 .324-.019.39-.032l.215-.04c.683-.264 1.055-.991.865-1.799-.174-.479-.614-.819-1.131-.898zM413.274 258.848c-.745 0-1.375.629-1.375 1.375v21.126c0 .745.63 1.374 1.375 1.374.776 0 1.408-.616 1.408-1.374v-21.126c0-.759-.632-1.375-1.408-1.375M438.483 258.848h-15.228c-.746 0-1.375.629-1.375 1.375 0 .777.617 1.408 1.375 1.408h6.238v19.718c0 .745.631 1.374 1.376 1.374.746 0 1.375-.629 1.375-1.374v-19.718h6.239c.759 0 1.375-.631 1.375-1.408 0-.746-.629-1.375-1.375-1.375M459.741 261.631c.772 0 1.375-.618 1.375-1.408a1.36 1.36 0 00-1.375-1.375h-11.664c-.746 0-1.375.629-1.375 1.375v21.126c0 .722.541 1.311 1.26 1.372l11.779.002c.772 0 1.375-.603 1.375-1.374 0-.79-.603-1.409-1.375-1.409h-10.257v-7.747h8.897c.745 0 1.374-.629 1.374-1.375 0-.776-.616-1.407-1.374-1.407h-8.897v-7.78h10.257M480.272 265.926c0 2.311-1.875 4.238-4.166 4.295h-5.137v-8.59h5.008a4.3 4.3 0 014.295 4.295zm2.718 13.672a1.183 1.183 0 01-.063-.156c-.119-.357-.262-1.068-.262-2.435 0-2.776-1.636-4.408-2.775-5.208a7.115 7.115 0 003.131-5.873c0-3.903-3.16-7.078-7.044-7.078h-6.318l-.213.003a1.402 1.402 0 00-1.26 1.372v21.126c0 .745.63 1.374 1.376 1.374.776 0 1.407-.616 1.407-1.374v-8.378h4.795l.187.058c.367.057 1.475.395 2.359 1.023 1.095.812 1.605 1.752 1.605 2.955 0 1.86.211 3.094.679 3.993.469.939 1.362 1.367 2.057 1.367.171 0 .322-.019.389-.032l.215-.04c.685-.264 1.057-.992.864-1.799a1.416 1.416 0 00-1.129-.898zM504.623 255.543c-.722 0-1.31.589-1.31 1.311v28.836c0 .722.588 1.31 1.31 1.31.723 0 1.311-.588 1.311-1.31v-28.836c0-.722-.588-1.311-1.311-1.311M540.148 271.067c-1.454-.978-3.414-1.686-6.054-2.165-2.083-.396-3.642-.942-4.634-1.622-.986-.676-1.399-1.336-1.426-2.261 0-.959.547-1.894 1.532-2.625 1.112-.794 2.674-1.249 4.286-1.249 2.381 0 4.248 1.221 5.878 2.289.584.407 1.474.211 1.819-.363a1.323 1.323 0 00-.372-1.825c-1.755-1.149-4.16-2.722-7.325-2.722-2.19 0-4.26.628-5.827 1.767-1.684 1.226-2.612 2.905-2.612 4.728 0 1.778.926 3.359 2.598 4.447 1.338.904 3.161 1.56 5.631 2.004 2.206.421 3.899 1.014 5.024 1.754 1.098.75 1.587 1.556 1.587 2.616 0 1.076-.602 2.1-1.701 2.889-1.184.873-2.873 1.374-4.725 1.374-3.286 0-6.179-2.131-6.966-2.766-.529-.47-1.412-.396-1.874.178-.42.543-.343 1.359.2 1.838 1.581 1.255 4.816 3.366 8.724 3.403h.006c2.297 0 4.492-.673 6.182-1.895 1.784-1.291 2.808-3.121 2.808-5.021 0-1.889-1.009-3.631-2.759-4.773M560.974 261.307c2.167 0 4.236.719 5.978 2.072.588.472 1.602.271 1.896-.206.245-.245.376-.598.358-.966a1.468 1.468 0 00-.544-1.065 12.668 12.668 0 00-7.691-2.618c-6.946.035-12.387 5.378-12.387 12.165 0 6.636 5.558 12.034 12.39 12.034 2.794 0 5.523-.918 7.674-2.576.323-.235.529-.623.552-1.04a1.285 1.285 0 00-.338-.956c-.403-.59-1.212-.8-1.988-.273-1.571 1.331-3.666 2.062-5.9 2.062-5.298 0-9.608-4.149-9.608-9.251 0-5.173 4.31-9.382 9.608-9.382M578.248 258.848c-.746 0-1.375.629-1.375 1.375v21.126c0 .745.629 1.374 1.375 1.374.776 0 1.407-.616 1.407-1.374v-21.126c0-.759-.631-1.375-1.407-1.375M601.642 261.631c.772 0 1.376-.618 1.376-1.408a1.36 1.36 0 00-1.376-1.375h-11.663c-.746 0-1.376.629-1.376 1.375v21.126c0 .722.542 1.311 1.261 1.372l11.778.002a1.36 1.36 0 001.376-1.374c0-.79-.604-1.409-1.376-1.409h-10.256v-7.747h8.896c.745 0 1.376-.629 1.376-1.375 0-.776-.618-1.407-1.376-1.407h-8.896v-7.78h10.256M626.498 259.075c-.746 0-1.376.63-1.376 1.375v16.619l-12.637-17.524c-.381-.599-1.22-.829-1.972-.344-.449.351-.644.889-.521 1.423v20.725c0 .745.629 1.374 1.374 1.374.746 0 1.375-.629 1.375-1.374v-16.713l12.477 17.336c.083.167.224.266.204.245.28.336.642.506 1.076.506.776 0 1.407-.616 1.407-1.374V260.45c0-.758-.631-1.375-1.407-1.375M651.483 258.848h-15.228c-.746 0-1.375.629-1.375 1.375 0 .777.616 1.408 1.375 1.408h6.238v19.718c0 .745.63 1.374 1.376 1.374.745 0 1.374-.629 1.374-1.374v-19.718h6.24c.758 0 1.374-.631 1.374-1.408 0-.746-.628-1.375-1.374-1.375M661.304 258.848c-.746 0-1.376.629-1.376 1.375v21.126c0 .745.63 1.374 1.376 1.374.776 0 1.407-.616 1.407-1.374v-21.126c0-.759-.631-1.375-1.407-1.375M685.907 271.067c-1.454-.978-3.414-1.686-6.054-2.165-2.083-.396-3.642-.942-4.634-1.622-.986-.676-1.399-1.336-1.426-2.261 0-.959.548-1.894 1.532-2.625 1.113-.794 2.674-1.249 4.287-1.249 2.38 0 4.247 1.221 5.877 2.289.584.407 1.474.211 1.82-.363a1.324 1.324 0 00-.373-1.825c-1.755-1.149-4.16-2.722-7.324-2.722-2.191 0-4.261.628-5.828 1.767-1.684 1.226-2.612 2.905-2.612 4.728 0 1.778.926 3.359 2.598 4.447 1.338.904 3.161 1.56 5.631 2.004 2.206.421 3.899 1.014 5.024 1.754 1.098.75 1.587 1.556 1.587 2.616 0 1.076-.602 2.1-1.701 2.889-1.184.873-2.873 1.374-4.725 1.374-3.286 0-6.179-2.131-6.966-2.766-.53-.47-1.413-.396-1.872.178-.422.543-.345 1.359.198 1.838 1.581 1.255 4.816 3.366 8.724 3.403h.006c2.297 0 4.492-.673 6.182-1.895 1.784-1.291 2.808-3.121 2.808-5.021 0-1.889-1.009-3.631-2.759-4.773M709.715 258.848h-15.229c-.745 0-1.374.629-1.374 1.375 0 .777.616 1.408 1.374 1.408h6.24v19.718c0 .745.629 1.374 1.374 1.374.746 0 1.376-.629 1.376-1.374v-19.718h6.239c.758 0 1.375-.631 1.375-1.408 0-.746-.63-1.375-1.375-1.375" class="fill-gold-p3"/><path d="M166.319 184.232h-4.12l-16.652 42.293h4.955s13.262-35.09 13.685-36.935c.672 2.402 13.627 36.935 13.627 36.935h5.071l-16.566-42.293M236.326 226.525h-5.588l-23.019-35.35h-.231c.307 4.149.461 7.952.461 11.409v23.941h-4.523v-42.12h5.531l22.961 35.205h.231c-.039-.518-.125-2.184-.259-4.998-.135-2.814-.183-4.826-.145-6.036v-24.171h4.581v42.12M295.559 226.525h-5.59l-23.018-35.35h-.231c.307 4.149.462 7.952.462 11.409v23.941h-4.524v-42.12h5.531l22.962 35.205h.23c-.038-.518-.125-2.184-.259-4.998-.135-2.814-.183-4.826-.144-6.036v-24.171h4.581v42.12M345.371 226.525h-23.48v-42.12h23.48v4.351h-18.582v13.568h17.458v4.322h-17.458v15.5h18.582v4.379M366.085 212.897h14.145v-4.379h-14.145zM421.832 226.525l-14.291-37.338h-.23c.269 2.958.403 6.473.403 10.545v26.793h-4.522v-42.12h7.375l13.338 34.744h.231l13.454-34.744h7.318v42.12h-4.897v-27.139c0-3.111.133-6.491.403-10.141h-.231l-14.405 37.28h-3.946M494.69 226.525h-23.479v-42.12h23.479v4.351h-18.582v13.568h17.46v4.322h-17.46v15.5h18.582v4.379M518.776 226.525h4.897v-42.12h-4.897zM593.018 226.525h-4.897v-37.769h-13.339v-4.351h31.575v4.351h-13.339v37.769M659.424 226.525h-4.897v-19.822h-22.183v19.822h-4.899v-42.12h4.899v17.919h22.183v-17.919h4.897v42.12M709.207 226.525h-23.479v-42.12h23.479v4.351h-18.582v13.568h17.459v4.322h-17.459v15.5h18.582v4.379" fill="#575649"/><path fill="#575649" d="M160.686 212.864h14.145v-4.379h-14.145z"/><path d="M508.927 99.122c-.145-2.05-1.525-3.996-4.068-3.734-3.857.397-7.713.839-11.568 1.305l-4.956.259c-11.219.588-46.944 1.395-58.165 1.983-7.103.269-16.296.516-23.398.785 8.564-32.811 14.118-39.078 10.362-40.04-1.868-.479-4.014-.961-5.731 4.409-1.925 6.021-9.386 30.129-10.548 36.038-3.769.143-21.127 1.435-25.002 1.386-2.546-.032-3.873.809-3.843 2.859-.003.033-.006.064-.003.096.07 2.119 1.073 2.397 3.697 2.123 3.856-.403 7.796-.425 11.651-.896 3.267-.176 8.83-.571 12.098-.747-2.091 5.029-14.488 27.085-44.256 28.591l-.74.009c-.983.029-1.974 0-2.915-.266-.94-.258-1.802-.81-2.388-1.592-.6-.776-.918-1.724-1.136-2.663-.223-.993-.305-1.731-.487-3.211l-.131-1.095-.194-1.437a29.707 29.707 0 00-.527-2.836c-.432-1.866-1.105-3.641-2.121-5.205a10.283 10.283 0 00-4.121-3.688c-1.683-.818-3.543-1.258-5.428-1.337-1.893-.2-3.755.285-5.527.975-1.777.724-3.481 1.718-5.13 2.798l-1.031.695-.933.652-1.817 1.311c-2.383 1.751-4.653 3.502-6.921 5.125a74.042 74.042 0 01-3.385 2.302l-.717.447-.571.329c-.383.21-.765.423-1.16.604-1.54.728-3.305 1.341-4.971.787a1.819 1.819 0 01-1.041-.714c-.272-.335-.469-.724-.65-1.114-.349-.786-.606-1.605-.837-2.421l-.321-1.225-.424-1.73-.981-4.179c-.663-2.831-1.343-5.722-2.267-8.715l-.44-1.342-.542-1.457c-.385-.958-.787-1.917-1.278-2.811-.95-1.808-2.136-3.459-3.696-4.71-.802-.586-1.684-1.124-2.652-1.366-.962-.232-1.932-.425-2.952-.45a23.405 23.405 0 00-6.137.567c-1.012.251-2.034.501-3.063.88-.807.289-1.613.585-2.371.929a41.337 41.337 0 00-4.386 2.215c-2.793 1.597-5.33 3.395-7.759 5.253-4.834 3.731-9.189 7.758-13.44 11.69l-3.161 2.92-1.446 1.314-.884.772c-1.069.904-2.13 1.78-3.282 2.48-.578.341-1.183.649-1.84.774-.652.147-1.389-.074-1.804-.639-.795-1.149-.878-2.598-.974-3.912a28.739 28.739 0 01-.014-1.989l.093-2.417c.11-2.817.261-5.659.434-8.511.703-11.416 5.416-54.996 6.499-64.684.538-4.847 1.015-9.721 1.365-14.677.336-4.974.59-9.956.403-15.413-.163-4.084-1.35-7.659-5.458-10.422-.656-.442-3.855-2.009-8.329.636-.153.09-.297.188-.445.284-.476.306-.962.643-1.464 1.051l-.152.135a32.2 32.2 0 00-1.609 1.389c-.506.473-.974.972-1.456 1.462a41.027 41.027 0 00-1.029 1.034 87.616 87.616 0 00-2.439 2.72c-3.433 4.598-6.511 9.355-9.551 14.129-3.026 4.779-5.971 9.595-8.897 14.415-5.848 9.642-11.631 19.299-17.526 28.878-11.787 19.149-23.972 38.041-37.363 55.982-6.696 8.963-13.691 17.686-21.128 25.971-7.441 8.272-15.316 16.132-23.823 23.127-8.5 6.972-17.668 13.11-27.537 17.365-9.832 4.275-20.432 6.473-30.824 5.543-6.002-1.006-11.726-2.989-17.063-5.717-5.335-2.745-10.308-6.173-14.954-10.066-3.334-2.818-7.477-1.391-10.005 1.545-1.242 1.467-2.018 3.318-1.941 5.202.064 1.888 1.029 3.784 3.177 5.202 5.902 3.868 12.322 7.102 19.098 9.375 6.777 2.262 13.928 3.477 20.998 3.464a66.345 66.345 0 0018.004-1.271c5.873-1.224 11.544-3.147 16.909-5.597 10.759-4.888 20.359-11.633 29.123-19.095 8.764-7.49 16.723-15.753 24.185-24.369 7.456-8.629 14.401-17.637 21.018-26.848 13.226-18.436 25.133-37.686 36.606-57.117 5.737-9.717 11.35-19.493 17.01-29.219 2.832-4.861 5.677-9.708 8.591-14.498 2.923-4.78 5.888-9.54 9.118-14.028 3.293-4.662 9.665-4.363 9 2.8-.814 8.756-7.909 79.078-8.306 90.728a410.213 410.213 0 00-.206 8.797l-.016 2.889a62.184 62.184 0 00.077 3.329c.072 2.214.328 4.345.688 6.377.855 4.011 2.17 7.396 4.969 9.715 2.411 1.996 5.899 1.498 7.994.591 3.39-1.467 6.894-4.091 10.121-6.994l1.207-1.102 1.108-1.039 1.715-1.643 3.117-3.044c4.111-4.024 8.15-7.949 12.368-11.392 2.108-1.708 4.255-3.309 6.442-4.639a31.538 31.538 0 013.288-1.782c.548-.27 1.096-.482 1.64-.698a12.5 12.5 0 011.072-.367 10.42 10.42 0 012.329-.401 7.56 7.56 0 011.194.025c.404.039.754.257 1.07.491.602.522 1.023 1.216 1.385 1.925.184.356.342.726.497 1.098l.222.564.255.71c.85 2.501 1.577 5.215 2.304 7.984l1.115 4.223.687 2.456c.275.986.594 1.949.912 2.912.668 1.905 1.459 3.729 2.497 5.293 1.004 1.572 2.373 2.931 4.23 3.533 3.665 1.229 7.602.35 11.17-1.342.905-.398 1.778-.904 2.647-1.396l1.286-.779 1.102-.726a83.772 83.772 0 003.703-2.668c2.379-1.803 4.631-3.641 6.855-5.368l1.66-1.268 1.573-1.147c.745-.527 1.515-1.034 2.338-1.458 1.613-.953 3.665-.943 5.386-.233a4.4 4.4 0 012.054 1.844c.482.807.765 1.716.976 2.635.107.46.191.928.269 1.398l.267 1.756c.203 1.377.519 3.513 1.062 5.284.541 1.815 1.336 3.55 2.577 4.951 1.211 1.426 2.864 2.439 4.643 2.975 1.784.547 3.677.666 5.575.553l1.418-.037c.494-.006.808-.068 1.221-.1l2.332-.24c22.15-2.985 36.141-19.438 37.611-21.67.093 3.188.527 6.439 1.641 9.639a21.565 21.565 0 002.056 4.269c1.061 1.961 2.465 3.811 4.223 5.259.567.589 1.251.959 1.886 1.443l.98.68c.332.211.678.369 1.019.555.685.354 1.377.72 2.077 1.052l2.119.787c5.716 1.958 11.425 2.264 16.879 2.082 4.01-.195 5.484-3.461 5.007-6.38-.481-2.959-2.663-5.626-6.006-5.062-4.624.724-9.261 1.023-13.364.269-4.12-.728-7.554-2.513-9.609-6.078-.711-1.305-1.208-2.787-1.551-4.365-.786-6.899.3-14.461 1.28-17.678 6.033-.324 56.674-1.062 80.16-1.574v.034c2.302-.063 4.362-.122 6.129-.179l.048-.001v-.001a483.95 483.95 0 002.064-.07c3.88.122 7.757.219 11.632.274 2.632.036 3.839-2.159 3.725-4.275-.001-.029-.006-.056-.01-.084" class="fill-gold-p3"/></g></svg>