<svg viewBox="0 0 22 22"><g fill="none" fill-rule="evenodd" stroke-linecap="round" stroke-linejoin="round"><path d="M11 17a6.002 6.002 0 006-6 6 6 0 10-6 6zm0-17v5m7.778-1.778l-3.535 3.535M22 11h-5m1.778 7.778l-3.535-3.535M11 22v-5m-7.778 1.778l3.535-3.535M0 11h5M3.222 3.222l3.535 3.535" stroke="#BCB8A8"/><path d="M9.457 5.2a6 6 0 007.086 8.1M9.327 5.236c-1.75.508-3.155 1.876-3.85 3.538a6 6 0 007.212 8.076 5.786 5.786 0 003.854-3.55" stroke="#645F4C" class="group-hover:stroke-green-p3 transition-colors"/></g></svg>